<?xml version="1.0" encoding="UTF-8"?>
<svg id="Layer_2" data-name="Layer 2" xmlns="http://www.w3.org/2000/svg" viewBox="0 0 308.57 184.37">
  <defs>
    <style>
      .cls-1 {
        font-family: IDGroteskTrial-Medium, 'ID Grotesk Trial';
        font-size: 12.06px;
        font-weight: 500;
      }

      .cls-1, .cls-2 {
        fill: #0600af;
      }

      .cls-3 {
        fill: #fff;
      }
    </style>
  </defs>
  <g id="Layer_1-2" data-name="Layer 1">
    <g>
      <g>
        <path class="cls-3" d="M190.79,153.63v30.74h-9.11v-28.57c0-1.86-1.51-3.36-3.36-3.36h-16.45v31.93h-9.12v-40.18h28.6c5.21,0,9.44,4.22,9.44,9.44Z"/>
        <path class="cls-3" d="M108.77,174.93v-30.74h9.11v28.57c0,1.86,1.51,3.36,3.36,3.36h16.45v-31.93h9.12v40.18h-28.6c-5.21,0-9.44-4.22-9.44-9.44Z"/>
        <polygon class="cls-3" points="229.91 131.18 229.91 139.32 213.31 139.32 213.31 184.28 204.19 184.28 204.19 139.32 187.74 139.32 187.74 131.18 229.91 131.18"/>
        <polygon class="cls-3" points="281.68 131.18 281.68 184.28 272.56 184.28 272.56 139.32 268.88 139.32 268.88 131.18 281.68 131.18"/>
        <polygon class="cls-3" points="293.06 163.64 306.54 184.28 295.27 184.28 284.9 168.39 284.9 159.75 297.31 144.19 308.57 144.19 293.06 163.64"/>
        <polygon class="cls-3" points="84.86 184.28 98.13 131.18 107.24 131.18 93.97 184.28 84.86 184.28"/>
        <path class="cls-3" d="M71.45,144.19h-19.82c-5.62,0-10.18,4.56-10.18,10.18v19.82c0,5.62,4.56,10.18,10.18,10.18h19.83c5.62,0,10.18-4.56,10.18-10.18v-19.82c0-5.62-4.56-10.18-10.18-10.18ZM71.34,176.08h-19.6c-1.1,0-2-.89-2-2v-19.6c0-1.1.89-2,2-2h19.6c1.1,0,2,.89,2,2v19.6c0,1.1-.89,2-2,2Z"/>
        <path class="cls-3" d="M9.09,141.47l.02,9.73c0,1.1.9,1.99,2,1.99h15.04c5.62,0,10.18,4.56,10.18,10.18v10.81c0,5.62-4.56,10.18-10.18,10.18H0v-8.29h25.22c1.1,0,2-.89,2-2v-10.41c0-1.1-.89-2-2-2h-15.04c-5.62,0-10.18-4.56-10.18-10.18v-10.13c0-5.62,4.56-10.18,10.18-10.18h26.15s-.03,8.29-.03,8.29H11.09c-1.1,0-2,.9-2,2Z"/>
        <path class="cls-3" d="M232.47,168.42h31.83v-14.09c0-5.62-4.56-10.18-10.18-10.18h-19.77c-5.62,0-10.18,4.56-10.18,10.18v19.77c0,5.62,4.56,10.18,10.18,10.18h24.17l5.56-8.3-31.62.02v-7.58ZM234.47,152.44h19.56c1.1,0,2,.89,2,2v5.7h-23.55v-5.7c0-1.1.89-2,2-2Z"/>
        <rect class="cls-3" x="232.47" y="175.98" width="23.55" height=".02"/>
      </g>
      <g>
        <g>
          <g>
            <path class="cls-2" d="M129.24,38.72h-19.15v-9.66h16.62c.3,0,.59-.12.81-.33l11.41-11.41c.21-.21.33-.5.33-.81V0h9.66v19.05c0,1.24-.49,2.43-1.37,3.31l-14.99,14.99c-.88.88-2.07,1.37-3.31,1.37Z"/>
            <path class="cls-2" d="M144.53,64.58h-9.66v-19.05c0-1.24.49-2.43,1.37-3.31l14.99-14.99c.88-.88,2.07-1.37,3.31-1.37h19.15v9.66h-16.62c-.3,0-.59.12-.81.33l-11.41,11.41c-.21.21-.33.5-.33.81v16.52Z"/>
          </g>
          <g>
            <path class="cls-2" d="M147.5,83.95h-19.15v-9.66h16.62c.3,0,.59-.12.81-.33l11.41-11.41c.21-.21.33-.5.33-.81v-16.52h9.66v19.05c0,1.24-.49,2.43-1.37,3.31l-14.99,14.99c-.88.88-2.07,1.37-3.31,1.37Z"/>
            <path class="cls-2" d="M162.79,109.81h-9.66v-19.05c0-1.24.49-2.43,1.37-3.31l14.99-14.99c.88-.88,2.07-1.37,3.31-1.37h19.15v9.66h-16.62c-.3,0-.59.12-.81.33l-11.41,11.41c-.21.21-.33.5-.33.81v16.52Z"/>
          </g>
        </g>
        <text class="cls-1" transform="translate(53.39 58.64)"><tspan x="0" y="0">ESTD</tspan></text>
        <text class="cls-1" transform="translate(218.77 58.64)"><tspan x="0" y="0">2026</tspan></text>
      </g>
    </g>
  </g>
</svg>