<?xml version="1.0" encoding="UTF-8"?>
<svg id="Layer_2" data-name="Layer 2" xmlns="http://www.w3.org/2000/svg" xmlns:xlink="http://www.w3.org/1999/xlink" viewBox="0 0 308.57 184.37">
  <defs>
    <style>
      .cls-1, .cls-2 {
        fill: #fff;
      }

      .cls-2 {
        font-family: IDGroteskTrial-Medium, 'ID Grotesk Trial';
        font-size: 12.06px;
        font-weight: 500;
      }

      .cls-3 {
        fill: url(#linear-gradient);
      }
    </style>
    <linearGradient id="linear-gradient" x1="105.03" y1="245.01" x2="224.6" y2="37.91" gradientUnits="userSpaceOnUse">
      <stop offset="0" stop-color="#0600af"/>
      <stop offset=".5" stop-color="#03f"/>
      <stop offset="1" stop-color="#4abaff"/>
    </linearGradient>
  </defs>
  <g id="Layer_1-2" data-name="Layer 1">
    <g>
      <g>
        <g>
          <path class="cls-1" d="M190.79,153.63v30.74h-9.11v-28.57c0-1.86-1.51-3.36-3.36-3.36h-16.45v31.93h-9.12v-40.18h28.6c5.21,0,9.44,4.22,9.44,9.44Z"/>
          <path class="cls-1" d="M108.77,174.93v-30.74h9.11v28.57c0,1.86,1.51,3.36,3.36,3.36h16.45v-31.93h9.12v40.18h-28.6c-5.21,0-9.44-4.22-9.44-9.44Z"/>
          <polygon class="cls-1" points="229.91 131.18 229.91 139.32 213.31 139.32 213.31 184.28 204.19 184.28 204.19 139.32 187.74 139.32 187.74 131.18 229.91 131.18"/>
          <polygon class="cls-1" points="281.68 131.18 281.68 184.28 272.56 184.28 272.56 139.32 268.88 139.32 268.88 131.18 281.68 131.18"/>
          <polygon class="cls-1" points="293.06 163.64 306.54 184.28 295.27 184.28 284.9 168.39 284.9 159.75 297.31 144.19 308.57 144.19 293.06 163.64"/>
          <polygon class="cls-1" points="84.86 184.28 98.13 131.18 107.24 131.18 93.97 184.28 84.86 184.28"/>
          <path class="cls-1" d="M71.45,144.19h-19.82c-5.62,0-10.18,4.56-10.18,10.18v19.82c0,5.62,4.56,10.18,10.18,10.18h19.83c5.62,0,10.18-4.56,10.18-10.18v-19.82c0-5.62-4.56-10.18-10.18-10.18ZM71.34,176.08h-19.6c-1.1,0-2-.89-2-2v-19.6c0-1.1.89-2,2-2h19.6c1.1,0,2,.89,2,2v19.6c0,1.1-.89,2-2,2Z"/>
          <path class="cls-1" d="M9.09,141.47l.02,9.73c0,1.1.9,1.99,2,1.99h15.04c5.62,0,10.18,4.56,10.18,10.18v10.81c0,5.62-4.56,10.18-10.18,10.18H0v-8.29h25.22c1.1,0,2-.89,2-2v-10.41c0-1.1-.89-2-2-2h-15.04c-5.62,0-10.18-4.56-10.18-10.18v-10.13c0-5.62,4.56-10.18,10.18-10.18h26.15s-.03,8.29-.03,8.29H11.09c-1.1,0-2,.9-2,2Z"/>
          <path class="cls-1" d="M232.47,168.42h31.83v-14.09c0-5.62-4.56-10.18-10.18-10.18h-19.77c-5.62,0-10.18,4.56-10.18,10.18v19.77c0,5.62,4.56,10.18,10.18,10.18h24.17l5.56-8.3-31.62.02v-7.58ZM234.47,152.44h19.56c1.1,0,2,.89,2,2v5.7h-23.55v-5.7c0-1.1.89-2,2-2Z"/>
          <rect class="cls-1" x="232.47" y="175.98" width="23.55" height=".02"/>
        </g>
        <g>
          <g>
            <g>
              <path class="cls-1" d="M129.24,38.72h-19.15v-9.66h16.62c.3,0,.59-.12.81-.33l11.41-11.41c.21-.21.33-.5.33-.81V0h9.66v19.05c0,1.24-.49,2.43-1.37,3.31l-14.99,14.99c-.88.88-2.07,1.37-3.31,1.37Z"/>
              <path class="cls-1" d="M144.53,64.58h-9.66v-19.05c0-1.24.49-2.43,1.37-3.31l14.99-14.99c.88-.88,2.07-1.37,3.31-1.37h19.15v9.66h-16.62c-.3,0-.59.12-.81.33l-11.41,11.41c-.21.21-.33.5-.33.81v16.52Z"/>
            </g>
            <g>
              <path class="cls-1" d="M147.5,83.95h-19.15v-9.66h16.62c.3,0,.59-.12.81-.33l11.41-11.41c.21-.21.33-.5.33-.81v-16.52h9.66v19.05c0,1.24-.49,2.43-1.37,3.31l-14.99,14.99c-.88.88-2.07,1.37-3.31,1.37Z"/>
              <path class="cls-1" d="M162.79,109.81h-9.66v-19.05c0-1.24.49-2.43,1.37-3.31l14.99-14.99c.88-.88,2.07-1.37,3.31-1.37h19.15v9.66h-16.62c-.3,0-.59.12-.81.33l-11.41,11.41c-.21.21-.33.5-.33.81v16.52Z"/>
            </g>
          </g>
          <text class="cls-2" transform="translate(53.39 58.64)"><tspan x="0" y="0">ESTD</tspan></text>
          <text class="cls-2" transform="translate(218.77 58.64)"><tspan x="0" y="0">2026</tspan></text>
        </g>
      </g>
      <g>
        <g>
          <g>
            <path class="cls-3" d="M190.79,153.63v30.74h-9.11v-28.57c0-1.86-1.51-3.36-3.36-3.36h-16.45v31.93h-9.12v-40.18h28.6c5.21,0,9.44,4.22,9.44,9.44Z"/>
            <path class="cls-3" d="M108.77,174.93v-30.74h9.11v28.57c0,1.86,1.51,3.36,3.36,3.36h16.45v-31.93h9.12v40.18h-28.6c-5.21,0-9.44-4.22-9.44-9.44Z"/>
            <polygon class="cls-3" points="229.91 131.18 229.91 139.32 213.31 139.32 213.31 184.28 204.19 184.28 204.19 139.32 187.74 139.32 187.74 131.18 229.91 131.18"/>
            <polygon class="cls-3" points="281.68 131.18 281.68 184.28 272.56 184.28 272.56 139.32 268.88 139.32 268.88 131.18 281.68 131.18"/>
            <polygon class="cls-3" points="293.06 163.64 306.54 184.28 295.27 184.28 284.9 168.39 284.9 159.75 297.31 144.19 308.57 144.19 293.06 163.64"/>
            <polygon class="cls-3" points="84.86 184.28 98.13 131.18 107.24 131.18 93.97 184.28 84.86 184.28"/>
            <path class="cls-3" d="M71.45,144.19h-19.82c-5.62,0-10.18,4.56-10.18,10.18v19.82c0,5.62,4.56,10.18,10.18,10.18h19.83c5.62,0,10.18-4.56,10.18-10.18v-19.82c0-5.62-4.56-10.18-10.18-10.18ZM71.34,176.08h-19.6c-1.1,0-2-.89-2-2v-19.6c0-1.1.89-2,2-2h19.6c1.1,0,2,.89,2,2v19.6c0,1.1-.89,2-2,2Z"/>
            <path class="cls-3" d="M9.09,141.47l.02,9.73c0,1.1.9,1.99,2,1.99h15.04c5.62,0,10.18,4.56,10.18,10.18v10.81c0,5.62-4.56,10.18-10.18,10.18H0v-8.29h25.22c1.1,0,2-.89,2-2v-10.41c0-1.1-.89-2-2-2h-15.04c-5.62,0-10.18-4.56-10.18-10.18v-10.13c0-5.62,4.56-10.18,10.18-10.18h26.15s-.03,8.29-.03,8.29H11.09c-1.1,0-2,.9-2,2Z"/>
            <path class="cls-3" d="M232.47,168.42h31.83v-14.09c0-5.62-4.56-10.18-10.18-10.18h-19.77c-5.62,0-10.18,4.56-10.18,10.18v19.77c0,5.62,4.56,10.18,10.18,10.18h24.17l5.56-8.3-31.62.02v-7.58ZM234.47,152.44h19.56c1.1,0,2,.89,2,2v5.7h-23.55v-5.7c0-1.1.89-2,2-2Z"/>
            <rect class="cls-3" x="232.47" y="175.98" width="23.55" height=".02"/>
          </g>
          <g>
            <path class="cls-3" d="M190.79,153.63v30.74h-9.11v-28.57c0-1.86-1.51-3.36-3.36-3.36h-16.45v31.93h-9.12v-40.18h28.6c5.21,0,9.44,4.22,9.44,9.44Z"/>
            <path class="cls-3" d="M108.77,174.93v-30.74h9.11v28.57c0,1.86,1.51,3.36,3.36,3.36h16.45v-31.93h9.12v40.18h-28.6c-5.21,0-9.44-4.22-9.44-9.44Z"/>
            <polygon class="cls-3" points="229.91 131.18 229.91 139.32 213.31 139.32 213.31 184.28 204.19 184.28 204.19 139.32 187.74 139.32 187.74 131.18 229.91 131.18"/>
            <polygon class="cls-3" points="281.68 131.18 281.68 184.28 272.56 184.28 272.56 139.32 268.88 139.32 268.88 131.18 281.68 131.18"/>
            <polygon class="cls-3" points="293.06 163.64 306.54 184.28 295.27 184.28 284.9 168.39 284.9 159.75 297.31 144.19 308.57 144.19 293.06 163.64"/>
            <polygon class="cls-3" points="84.86 184.28 98.13 131.18 107.24 131.18 93.97 184.28 84.86 184.28"/>
            <path class="cls-3" d="M71.45,144.19h-19.82c-5.62,0-10.18,4.56-10.18,10.18v19.82c0,5.62,4.56,10.18,10.18,10.18h19.83c5.62,0,10.18-4.56,10.18-10.18v-19.82c0-5.62-4.56-10.18-10.18-10.18ZM71.34,176.08h-19.6c-1.1,0-2-.89-2-2v-19.6c0-1.1.89-2,2-2h19.6c1.1,0,2,.89,2,2v19.6c0,1.1-.89,2-2,2Z"/>
            <path class="cls-3" d="M9.09,141.47l.02,9.73c0,1.1.9,1.99,2,1.99h15.04c5.62,0,10.18,4.56,10.18,10.18v10.81c0,5.62-4.56,10.18-10.18,10.18H0v-8.29h25.22c1.1,0,2-.89,2-2v-10.41c0-1.1-.89-2-2-2h-15.04c-5.62,0-10.18-4.56-10.18-10.18v-10.13c0-5.62,4.56-10.18,10.18-10.18h26.15s-.03,8.29-.03,8.29H11.09c-1.1,0-2,.9-2,2Z"/>
            <path class="cls-3" d="M232.47,168.42h31.83v-14.09c0-5.62-4.56-10.18-10.18-10.18h-19.77c-5.62,0-10.18,4.56-10.18,10.18v19.77c0,5.62,4.56,10.18,10.18,10.18h24.17l5.56-8.3-31.62.02v-7.58ZM234.47,152.44h19.56c1.1,0,2,.89,2,2v5.7h-23.55v-5.7c0-1.1.89-2,2-2Z"/>
            <rect class="cls-3" x="232.47" y="175.98" width="23.55" height=".02"/>
          </g>
          <g>
            <path class="cls-3" d="M190.79,153.63v30.74h-9.11v-28.57c0-1.86-1.51-3.36-3.36-3.36h-16.45v31.93h-9.12v-40.18h28.6c5.21,0,9.44,4.22,9.44,9.44Z"/>
            <path class="cls-3" d="M108.77,174.93v-30.74h9.11v28.57c0,1.86,1.51,3.36,3.36,3.36h16.45v-31.93h9.12v40.18h-28.6c-5.21,0-9.44-4.22-9.44-9.44Z"/>
            <polygon class="cls-3" points="229.91 131.18 229.91 139.32 213.31 139.32 213.31 184.28 204.19 184.28 204.19 139.32 187.74 139.32 187.74 131.18 229.91 131.18"/>
            <polygon class="cls-3" points="281.68 131.18 281.68 184.28 272.56 184.28 272.56 139.32 268.88 139.32 268.88 131.18 281.68 131.18"/>
            <polygon class="cls-3" points="293.06 163.64 306.54 184.28 295.27 184.28 284.9 168.39 284.9 159.75 297.31 144.19 308.57 144.19 293.06 163.64"/>
            <polygon class="cls-3" points="84.86 184.28 98.13 131.18 107.24 131.18 93.97 184.28 84.86 184.28"/>
            <path class="cls-3" d="M71.45,144.19h-19.82c-5.62,0-10.18,4.56-10.18,10.18v19.82c0,5.62,4.56,10.18,10.18,10.18h19.83c5.62,0,10.18-4.56,10.18-10.18v-19.82c0-5.62-4.56-10.18-10.18-10.18ZM71.34,176.08h-19.6c-1.1,0-2-.89-2-2v-19.6c0-1.1.89-2,2-2h19.6c1.1,0,2,.89,2,2v19.6c0,1.1-.89,2-2,2Z"/>
            <path class="cls-3" d="M9.09,141.47l.02,9.73c0,1.1.9,1.99,2,1.99h15.04c5.62,0,10.18,4.56,10.18,10.18v10.81c0,5.62-4.56,10.18-10.18,10.18H0v-8.29h25.22c1.1,0,2-.89,2-2v-10.41c0-1.1-.89-2-2-2h-15.04c-5.62,0-10.18-4.56-10.18-10.18v-10.13c0-5.62,4.56-10.18,10.18-10.18h26.15s-.03,8.29-.03,8.29H11.09c-1.1,0-2,.9-2,2Z"/>
            <path class="cls-3" d="M232.47,168.42h31.83v-14.09c0-5.62-4.56-10.18-10.18-10.18h-19.77c-5.62,0-10.18,4.56-10.18,10.18v19.77c0,5.62,4.56,10.18,10.18,10.18h24.17l5.56-8.3-31.62.02v-7.58ZM234.47,152.44h19.56c1.1,0,2,.89,2,2v5.7h-23.55v-5.7c0-1.1.89-2,2-2Z"/>
            <rect class="cls-3" x="232.47" y="175.98" width="23.55" height=".02"/>
          </g>
        </g>
        <g>
          <g>
            <g>
              <path class="cls-3" d="M129.24,38.72h-19.15v-9.66h16.62c.3,0,.59-.12.81-.33l11.41-11.41c.21-.21.33-.5.33-.81V0h9.66v19.05c0,1.24-.49,2.43-1.37,3.31l-14.99,14.99c-.88.88-2.07,1.37-3.31,1.37Z"/>
              <path class="cls-3" d="M144.53,64.58h-9.66v-19.05c0-1.24.49-2.43,1.37-3.31l14.99-14.99c.88-.88,2.07-1.37,3.31-1.37h19.15v9.66h-16.62c-.3,0-.59.12-.81.33l-11.41,11.41c-.21.21-.33.5-.33.81v16.52Z"/>
            </g>
            <g>
              <path class="cls-3" d="M147.5,83.95h-19.15v-9.66h16.62c.3,0,.59-.12.81-.33l11.41-11.41c.21-.21.33-.5.33-.81v-16.52h9.66v19.05c0,1.24-.49,2.43-1.37,3.31l-14.99,14.99c-.88.88-2.07,1.37-3.31,1.37Z"/>
              <path class="cls-3" d="M162.79,109.81h-9.66v-19.05c0-1.24.49-2.43,1.37-3.31l14.99-14.99c.88-.88,2.07-1.37,3.31-1.37h19.15v9.66h-16.62c-.3,0-.59.12-.81.33l-11.41,11.41c-.21.21-.33.5-.33.81v16.52Z"/>
            </g>
          </g>
          <g>
            <path class="cls-3" d="M59.74,58.64h-5.51v-8.69h5.51v1.07h-4c-.19,0-.37-.08-.55-.23l-.08.11c.08.06.14.14.19.23.05.09.08.19.08.28v1.88c0,.1-.02.18-.06.24s-.1.13-.17.2l.08.11c.06-.06.14-.11.22-.14s.17-.05.25-.05h3.33v1.07h-3.29c-.11,0-.2-.01-.27-.04-.07-.03-.14-.07-.21-.13l-.1.11c.08.06.14.13.17.2s.05.16.05.26v2.15c0,.09-.02.17-.06.24-.04.07-.1.14-.18.21l.09.1c.16-.17.33-.25.51-.25h4.03v1.07Z"/>
            <path class="cls-3" d="M64.07,58.82c-.62,0-1.17-.11-1.67-.32s-.92-.52-1.26-.92c-.34-.4-.55-.91-.62-1.51l1.2-.04c.11.52.39.94.84,1.25.45.31.97.47,1.56.47.38,0,.72-.06,1.03-.18.31-.12.56-.29.74-.51.18-.22.27-.49.27-.8,0-.18-.03-.34-.09-.47-.06-.13-.15-.25-.26-.34-.11-.09-.23-.18-.38-.24s-.29-.13-.45-.17l-2.22-.66c-.23-.07-.46-.16-.69-.26-.23-.11-.43-.25-.61-.41-.18-.17-.32-.37-.43-.61-.11-.24-.16-.52-.16-.85,0-.52.13-.97.4-1.33.27-.37.63-.64,1.09-.84.46-.19.98-.29,1.56-.29.59,0,1.11.1,1.58.3.47.19.86.48,1.19.87.32.38.51.9.57,1.54l-1.2.04c-.04-.38-.15-.69-.36-.94-.2-.25-.46-.43-.78-.55-.32-.12-.66-.18-1.01-.19-.35,0-.66.05-.94.16s-.5.27-.67.47-.25.43-.25.69.07.47.22.63c.15.16.33.28.55.37.22.09.43.17.65.23l1.64.46c.19.06.41.13.66.22.25.09.49.22.73.39.23.17.43.39.58.67s.23.62.23,1.04-.09.8-.26,1.13c-.17.33-.41.6-.71.82-.3.22-.65.39-1.04.5-.4.11-.82.17-1.27.17Z"/>
            <path class="cls-3" d="M71.97,51.39v7.25h-1.13v-7.25c0-.1.01-.2.05-.27.04-.08.1-.16.18-.24l-.11-.09c-.1.08-.18.15-.26.18-.08.04-.17.06-.27.06h-2.52v-1.07h7.01v1.07h-2.48c-.21,0-.41-.08-.58-.25l-.09.1c.08.08.14.16.17.24s.05.17.05.28Z"/>
            <path class="cls-3" d="M75.87,58.64v-8.69h2.69c.08,0,.24,0,.46,0s.43.02.63.05c.67.09,1.24.33,1.69.73.46.4.8.91,1.03,1.53s.35,1.29.35,2.03-.12,1.42-.35,2.04-.58,1.12-1.03,1.52c-.46.4-1.02.64-1.69.73-.2.03-.41.04-.64.05s-.38,0-.46,0h-2.69ZM76.71,57.79l.09.11c.13-.12.24-.21.32-.26.08-.05.18-.08.29-.08h1.15c.15,0,.32,0,.51-.01s.35-.03.49-.05c.47-.08.84-.28,1.13-.59s.5-.69.63-1.14.2-.94.2-1.47-.07-1.03-.21-1.48c-.14-.46-.35-.83-.64-1.14-.29-.3-.66-.5-1.12-.58-.14-.03-.31-.04-.5-.05s-.36,0-.5,0h-1.14c-.12,0-.23-.02-.31-.06s-.18-.11-.3-.21l-.09.11c.11.1.19.19.24.27.05.08.08.18.08.32v5.72c0,.14-.02.24-.07.32s-.13.17-.25.28Z"/>
          </g>
          <g>
            <path class="cls-3" d="M225.18,58.64h-5.8v-1.01s3.84-3.44,3.84-3.44c.32-.28.53-.55.64-.81.11-.25.17-.52.17-.78,0-.33-.07-.62-.22-.88-.15-.26-.35-.47-.61-.62-.26-.15-.55-.23-.88-.23-.34,0-.64.08-.91.24-.26.16-.47.37-.62.63s-.22.55-.22.86h-1.16c0-.55.13-1.04.38-1.46.25-.42.6-.75,1.04-.99.44-.24.94-.36,1.5-.36s1.02.12,1.45.37c.43.25.77.58,1.02,1.01.25.43.37.91.37,1.45,0,.39-.05.72-.15,1-.1.28-.25.53-.45.77-.2.24-.45.49-.75.76l-2.19,1.97c-.22.19-.38.31-.5.35-.11.04-.32.11-.61.21l.05.14c.28-.1.49-.17.63-.2.14-.03.35-.05.62-.05h3.34v1.08Z"/>
            <path class="cls-3" d="M229.59,58.82c-.57,0-1.08-.13-1.53-.38-.45-.25-.8-.67-1.05-1.25s-.38-1.4-.38-2.46v-.88c0-1.07.13-1.88.38-2.46.26-.57.61-.99,1.05-1.24s.96-.38,1.53-.38,1.08.13,1.52.38c.44.25.79.67,1.05,1.24.26.57.39,1.39.39,2.46v.88c0,1.07-.13,1.89-.39,2.46s-.61.99-1.05,1.25c-.44.26-.95.38-1.52.38ZM229.59,57.74c.33,0,.64-.08.91-.24.27-.16.49-.49.65-1,.16-.5.24-1.09.24-1.76v-.89c0-.67-.08-1.26-.24-1.76-.16-.5-.38-.83-.65-1-.27-.16-.58-.24-.91-.24s-.64.08-.91.24c-.28.16-.49.49-.65,1-.16.5-.24,1.09-.24,1.76v.89c0,.67.08,1.26.24,1.76.16.5.38.83.65,1,.28.16.58.24.91.24Z"/>
            <path class="cls-3" d="M239.8,58.64h-5.8v-1.01s3.84-3.44,3.84-3.44c.32-.28.53-.55.64-.81.11-.25.17-.52.17-.78,0-.33-.07-.62-.22-.88-.15-.26-.35-.47-.61-.62-.26-.15-.55-.23-.88-.23-.34,0-.64.08-.91.24-.26.16-.47.37-.62.63s-.22.55-.22.86h-1.16c0-.55.13-1.04.38-1.46.25-.42.6-.75,1.04-.99.44-.24.94-.36,1.5-.36s1.02.12,1.45.37c.43.25.77.58,1.02,1.01.25.43.37.91.37,1.45,0,.39-.05.72-.15,1-.1.28-.25.53-.45.77-.2.24-.45.49-.75.76l-2.19,1.97c-.22.19-.38.31-.5.35-.11.04-.32.11-.61.21l.05.14c.28-.1.49-.17.63-.2.14-.03.35-.05.62-.05h3.34v1.08Z"/>
            <path class="cls-3" d="M244.21,58.82c-.56,0-1.06-.13-1.5-.4-.45-.27-.8-.63-1.07-1.09-.26-.46-.4-.99-.4-1.57v-2.85c0-.62.13-1.16.4-1.63.26-.47.63-.84,1.09-1.1.46-.27.99-.4,1.59-.4.49,0,.94.09,1.32.28.39.19.7.42.93.69v1.19c-.39-.41-.77-.69-1.12-.85-.35-.16-.73-.24-1.13-.24-.38,0-.71.09-1,.27s-.52.42-.68.71c-.16.29-.24.61-.24.95v.62c0,.25-.03.43-.09.54-.06.11-.17.29-.32.55l.12.06c.31-.55.66-.94,1.03-1.16.37-.22.78-.33,1.22-.33.54,0,1.02.13,1.45.38.43.25.76.6,1.01,1.03.25.43.37.92.37,1.46s-.13,1.03-.4,1.47c-.27.44-.63.79-1.08,1.05-.45.26-.95.39-1.48.39ZM244.21,57.73c.34,0,.64-.08.92-.24s.5-.38.66-.66c.17-.28.25-.58.25-.91s-.08-.64-.24-.92c-.16-.28-.38-.5-.66-.66s-.58-.25-.92-.25-.64.08-.92.25c-.28.17-.5.38-.66.66-.16.28-.24.58-.24.92s.08.63.24.91c.16.28.38.5.66.66.28.17.58.25.92.25Z"/>
          </g>
        </g>
      </g>
    </g>
  </g>
</svg>