<?xml version="1.0" encoding="UTF-8"?>
<svg id="Layer_2" data-name="Layer 2" xmlns="http://www.w3.org/2000/svg" viewBox="0 0 133.09 178.47">
  <defs>
    <style>
      .cls-1 {
        fill: #4abaff;
      }
    </style>
  </defs>
  <g id="Layer_1-2" data-name="Layer 1">
    <g>
      <g>
        <path class="cls-1" d="M31.13,62.94H0v-15.69h27.02c.49,0,.96-.2,1.31-.54l18.55-18.55c.35-.35.54-.82.54-1.31V0h15.69v30.96c0,2.02-.8,3.96-2.23,5.38l-24.36,24.36c-1.43,1.43-3.36,2.23-5.38,2.23Z"/>
        <path class="cls-1" d="M55.98,104.97h-15.69v-30.96c0-2.02.8-3.96,2.23-5.38l24.36-24.36c1.43-1.43,3.36-2.23,5.38-2.23h31.13v15.69h-27.02c-.49,0-.96.2-1.31.54l-18.55,18.55c-.35.35-.54.82-.54,1.31v26.84Z"/>
      </g>
      <g>
        <path class="cls-1" d="M60.82,136.44h-31.13v-15.69h27.02c.49,0,.96-.2,1.31-.54l18.55-18.55c.35-.35.54-.82.54-1.31v-26.84h15.69v30.96c0,2.02-.8,3.96-2.23,5.38l-24.36,24.36c-1.43,1.43-3.36,2.23-5.38,2.23Z"/>
        <path class="cls-1" d="M85.67,178.47h-15.69v-30.96c0-2.02.8-3.96,2.23-5.38l24.36-24.36c1.43-1.43,3.36-2.23,5.38-2.23h31.13v15.69h-27.02c-.49,0-.96.2-1.31.54l-18.55,18.55c-.35.35-.54.82-.54,1.31v26.84Z"/>
      </g>
    </g>
  </g>
</svg>