<?xml version="1.0" encoding="UTF-8"?>
<svg id="Layer_2" data-name="Layer 2" xmlns="http://www.w3.org/2000/svg" viewBox="0 0 308.57 192.14">
  <defs>
    <style>
      .cls-1 {
        fill: #fff;
      }

      .cls-2 {
        fill: #03f;
      }
    </style>
  </defs>
  <g id="Layer_1-2" data-name="Layer 1">
    <g>
      <rect class="cls-2" x="93.46" y="0" width="109.08" height="109.08" rx="37.72" ry="37.72"/>
      <g>
        <g>
          <path class="cls-1" d="M133.68,43.91h-12.59v-6.34h10.92c.2,0,.39-.08.53-.22l7.5-7.5c.14-.14.22-.33.22-.53v-10.85h6.34v12.52c0,.82-.32,1.6-.9,2.18l-9.85,9.85c-.58.58-1.36.9-2.18.9Z"/>
          <path class="cls-1" d="M143.73,60.9h-6.34v-12.52c0-.82.32-1.6.9-2.18l9.85-9.85c.58-.58,1.36-.9,2.18-.9h12.59v6.34h-10.92c-.2,0-.39.08-.53.22l-7.5,7.5c-.14.14-.22.33-.22.53v10.85Z"/>
        </g>
        <g>
          <path class="cls-1" d="M145.69,73.63h-12.59v-6.34h10.92c.2,0,.39-.08.53-.22l7.5-7.5c.14-.14.22-.33.22-.53v-10.85h6.34v12.52c0,.82-.32,1.6-.9,2.18l-9.85,9.85c-.58.58-1.36.9-2.18.9Z"/>
          <path class="cls-1" d="M155.73,90.62h-6.34v-12.52c0-.82.32-1.6.9-2.18l9.85-9.85c.58-.58,1.36-.9,2.18-.9h12.59v6.34h-10.92c-.2,0-.39.08-.53.22l-7.5,7.5c-.14.14-.22.33-.22.53v10.85Z"/>
        </g>
      </g>
      <g>
        <path class="cls-1" d="M190.79,161.4v30.74h-9.11v-28.57c0-1.86-1.51-3.36-3.36-3.36h-16.45v31.93h-9.12v-40.18h28.6c5.21,0,9.44,4.22,9.44,9.44Z"/>
        <path class="cls-1" d="M108.77,182.7v-30.74h9.11v28.57c0,1.86,1.51,3.36,3.36,3.36h16.45v-31.93h9.12v40.18h-28.6c-5.21,0-9.44-4.22-9.44-9.44Z"/>
        <polygon class="cls-1" points="229.91 138.94 229.91 147.09 213.31 147.09 213.31 192.05 204.19 192.05 204.19 147.09 187.74 147.09 187.74 138.94 229.91 138.94"/>
        <polygon class="cls-1" points="281.68 138.94 281.68 192.05 272.56 192.05 272.56 147.09 268.88 147.09 268.88 138.94 281.68 138.94"/>
        <polygon class="cls-1" points="293.06 171.41 306.54 192.05 295.27 192.05 284.9 176.16 284.9 167.52 297.31 151.96 308.57 151.96 293.06 171.41"/>
        <polygon class="cls-1" points="84.86 192.05 98.13 138.95 107.24 138.95 93.97 192.05 84.86 192.05"/>
        <path class="cls-1" d="M71.45,151.96h-19.82c-5.62,0-10.18,4.56-10.18,10.18v19.82c0,5.62,4.56,10.18,10.18,10.18h19.83c5.62,0,10.18-4.56,10.18-10.18v-19.82c0-5.62-4.56-10.18-10.18-10.18ZM71.34,183.85h-19.6c-1.1,0-2-.89-2-2v-19.6c0-1.1.89-2,2-2h19.6c1.1,0,2,.89,2,2v19.6c0,1.1-.89,2-2,2Z"/>
        <path class="cls-1" d="M9.09,149.24l.02,9.73c0,1.1.9,1.99,2,1.99h15.04c5.62,0,10.18,4.56,10.18,10.18v10.81c0,5.62-4.56,10.18-10.18,10.18H0v-8.29h25.22c1.1,0,2-.89,2-2v-10.41c0-1.1-.89-2-2-2h-15.04c-5.62,0-10.18-4.56-10.18-10.18v-10.13c0-5.62,4.56-10.18,10.18-10.18h26.15s-.03,8.29-.03,8.29H11.09c-1.1,0-2,.9-2,2Z"/>
        <path class="cls-1" d="M232.47,176.19h31.83v-14.09c0-5.62-4.56-10.18-10.18-10.18h-19.77c-5.62,0-10.18,4.56-10.18,10.18v19.77c0,5.62,4.56,10.18,10.18,10.18h24.17l5.56-8.3-31.62.02v-7.58ZM234.47,160.21h19.56c1.1,0,2,.89,2,2v5.7h-23.55v-5.7c0-1.1.89-2,2-2Z"/>
        <rect class="cls-1" x="232.47" y="183.75" width="23.55" height=".02"/>
      </g>
    </g>
  </g>
</svg>