<svg xmlns="http://www.w3.org/2000/svg" viewBox="0 0 310.88 38.42"><defs><style>.cls-1{fill:#f53627;}.cls-2{fill:#fff;}</style></defs><title>LOGO</title><g id="Layer_2" data-name="Layer 2"><g id="Layer_1-2" data-name="Layer 1"><path class="cls-1" d="M32.59,32.16l0,0a17.68,17.68,0,0,1-3.79-5.68.52.52,0,0,0-.41-.32.55.55,0,0,0-.48.19l-.06.08a11.16,11.16,0,0,1-8.71,4.22,10.68,10.68,0,0,1-7.9-3.17,11,11,0,0,1-3.13-8.25A11,11,0,0,1,11.2,11a10.7,10.7,0,0,1,7.93-3.16,9.53,9.53,0,0,1,7.72,3.65l.88,1.06a.54.54,0,0,0,.49.18.5.5,0,0,0,.4-.33,17,17,0,0,1,3.79-5.88.51.51,0,0,0,0-.71A17.14,17.14,0,0,0,19.13,0,18.45,18.45,0,0,0,5.48,5.55,18.58,18.58,0,0,0,0,19.2,18.75,18.75,0,0,0,18.29,38.41h.83a19.59,19.59,0,0,0,8.14-1.73A18,18,0,0,0,32.67,33a.52.52,0,0,0,.11-.57A.6.6,0,0,0,32.59,32.16Z" transform="translate(0)"></path><path class="cls-1" d="M64.09,5.61A18.24,18.24,0,0,0,50.61,0a18.36,18.36,0,0,0-13.5,5.56L37,5.73l-.14.15a19.29,19.29,0,0,0-2.65,3.5,19.23,19.23,0,0,0-2.52,9.82,19.74,19.74,0,0,0,1.43,7.63,18.84,18.84,0,0,0,1.21,2.42,20.07,20.07,0,0,0,2.75,3.55l.07.06.17.14a18.29,18.29,0,0,0,13,5.42h.36a18.5,18.5,0,0,0,13.48-5.57,18.8,18.8,0,0,0,5.45-13.62A18.83,18.83,0,0,0,64.09,5.61Zm-24.4,13.6A11.29,11.29,0,0,1,42.79,11a10.34,10.34,0,0,1,7.49-3.2h.32A10.19,10.19,0,0,1,58.31,11a11,11,0,0,1,3.14,8.22,11,11,0,0,1-3.09,8.18l0,.05a10.17,10.17,0,0,1-7.73,3.2,10.28,10.28,0,0,1-7.78-3.2A11.28,11.28,0,0,1,39.69,19.21Z" transform="translate(0)"></path><path class="cls-2" d="M81.29,34.45a15.17,15.17,0,0,1-6.23-6.09,18.13,18.13,0,0,1-2.19-9,18.13,18.13,0,0,1,2.29-9.18A15.78,15.78,0,0,1,81.5,4,19.33,19.33,0,0,1,90.8,1.8,18.27,18.27,0,0,1,97.46,3a18.85,18.85,0,0,1,5.66,3.4L99,11.89a16.19,16.19,0,0,0-4.06-2.45,11.32,11.32,0,0,0-4.26-.79A10.23,10.23,0,0,0,85.45,10,8.92,8.92,0,0,0,82,13.62a11.5,11.5,0,0,0-1.24,5.45A11.83,11.83,0,0,0,82,24.65a9.07,9.07,0,0,0,3.57,3.74,10.35,10.35,0,0,0,5.3,1.33A12.46,12.46,0,0,0,95.18,29a13.83,13.83,0,0,0,4-2.45l4.14,5.52a18,18,0,0,1-5.69,3.38,20.07,20.07,0,0,1-7,1.19A19.61,19.61,0,0,1,81.29,34.45Z" transform="translate(0)"></path><path class="cls-2" d="M127.69,36.54,118.8,25.07h-3.17V36.54h-8.15V1.77h15.3a14.19,14.19,0,0,1,6.55,1.47,11,11,0,0,1,4.5,4.1,11.37,11.37,0,0,1,1.61,6.05,11.14,11.14,0,0,1-2.11,6.83,11.55,11.55,0,0,1-5.84,4.1l9.89,12.22ZM125.93,9.89a5.59,5.59,0,0,0-4.05-1.36h-6.3V18.76h6.3a5.79,5.79,0,0,0,4.05-1.29,4.74,4.74,0,0,0,1.41-3.68A5.18,5.18,0,0,0,125.93,9.89Z" transform="translate(0)"></path><path class="cls-2" d="M148.8,22.24v7.51h17.65v6.87H140.89V1.81h25V8.57H148.8v7.11H165v6.56Z" transform="translate(0)"></path><path class="cls-2" d="M205.94,36.59h-8.79l-2.68-6.36H178.78l-2.63,6.36h-8.54L182.5,1.83h8.59ZM181.36,23.43h10.58l-3.18-8.69q-1.55-4-2-5.56h-.2q-.28,1-2,5.76Z" transform="translate(0)"></path><path class="cls-2" d="M202.4,1.77h29.1V8.61H220.94V36.47h-8.08V8.61H202.4Z" transform="translate(0)"></path><path class="cls-2" d="M243.32,36.6h-7.8V1.82h7.8Z" transform="translate(0)"></path><path class="cls-2" d="M260.68,36.57,247.27,1.85h8.46l5.52,15q1.1,3.07,2.07,6.27c.65,2.14,1.08,3.73,1.31,4.79h.19a90.12,90.12,0,0,1,3.32-11.11l5.52-15h8.28L268.53,36.57Z" transform="translate(0)"></path><path class="cls-2" d="M293.23,22.24v7.51h17.65v6.86H285.33V1.81h25V8.57H293.23v7.11h16.16v6.56Z" transform="translate(0)"></path></g></g></svg>