<?xml version="1.0" encoding="UTF-8"?>
<svg version="1.1" xmlns="http://www.w3.org/2000/svg" width="458" height="108">
<path d="M0 0 C2.16389095 -0.00965915 4.32681184 -0.04069725 6.49047852 -0.07226562 C18.26033682 -0.16338787 28.32453002 1.29518803 37.50024414 9.24023438 C42.10138502 14.14885006 43.34839081 19.33241124 43.63305664 25.95507812 C43.11461501 38.77888428 38.90937052 50.34392768 29.50024414 59.24023438 C15.55978761 70.26363503 -3.68099131 71.25920685 -20.71459961 69.71289062 C-31.35930714 68.38367534 -40.42896459 64.55881233 -47.49975586 56.24023438 C-51.814118 47.99129549 -50.52605832 35.29966874 -47.93725586 26.67773438 C-44.02035436 16.74117372 -37.08585795 9.40465061 -27.49975586 4.79882812 C-18.1082757 0.75911056 -10.13959457 0.02733351 0 0 Z " fill="#A93691" transform="translate(206.499755859375,1.759765625)"/>
<path d="M0 0 C4.10403363 -0.08694042 8.20783129 -0.14037149 12.3125 -0.1875 C13.47974609 -0.21263672 14.64699219 -0.23777344 15.84960938 -0.26367188 C16.96787109 -0.27333984 18.08613281 -0.28300781 19.23828125 -0.29296875 C20.26993408 -0.3086792 21.30158691 -0.32438965 22.36450195 -0.34057617 C25 0 25 0 26.86010742 1.39331055 C28 3 28 3 28 5 C28.66 5 29.32 5 30 5 C32.6020866 8.49655387 34.54997977 11.89160936 36 16 C36.66 16 37.32 16 38 16 C39.25512695 17.6237793 39.25512695 17.6237793 40.67578125 19.88671875 C43.98371252 25.01687514 47.54776692 29.91420393 51.1875 34.8125 C51.80302734 35.64458984 52.41855469 36.47667969 53.05273438 37.33398438 C55.69060193 40.8978206 58.33735704 44.4546303 61 48 C66.76810825 41.28355674 72.45855237 34.5179569 77.9375 27.5625 C78.38520752 26.99644043 78.83291504 26.43038086 79.29418945 25.84716797 C81.3925064 23.16565572 83.36854574 20.46251041 85.19140625 17.58984375 C86.08666016 16.30787109 86.08666016 16.30787109 87 15 C87.66 15 88.32 15 89 15 C89.66 13.35 90.32 11.7 91 10 C91.66 10 92.32 10 93 10 C93.66 8.35 94.32 6.7 95 5 C95.66 5 96.32 5 97 5 C97.4640625 4.0409375 97.4640625 4.0409375 97.9375 3.0625 C99 1 99 1 100 0 C101.63472882 -0.08700342 103.27314055 -0.10701063 104.91015625 -0.09765625 C105.89951172 -0.09443359 106.88886719 -0.09121094 107.90820312 -0.08789062 C108.94912109 -0.07951172 109.99003906 -0.07113281 111.0625 -0.0625 C112.62967773 -0.05573242 112.62967773 -0.05573242 114.22851562 -0.04882812 C116.8190666 -0.03699913 119.40950559 -0.02051689 122 0 C122.3853894 1.08099976 122.3853894 1.08099976 122.77856445 2.18383789 C123.95426424 5.47754376 125.13335226 8.77002701 126.3125 12.0625 C126.71662109 13.19623047 127.12074219 14.32996094 127.53710938 15.49804688 C129.53942591 21.08174258 131.6104541 26.57213363 134 32 C146 61.18494796 146 61.18494796 146 66 C137.75 66 129.5 66 121 66 C117.5625 56.0625 117.5625 56.0625 116.48266602 52.92602539 C116.06005493 51.71160767 116.06005493 51.71160767 115.62890625 50.47265625 C115.34088135 49.64000244 115.05285645 48.80734863 114.75610352 47.94946289 C114.16119007 46.02666909 114.16119007 46.02666909 113 45 C99.59141598 46.26050144 86.57200105 49.47956533 77.1875 59.8125 C75.54497989 61.84726372 74.16738016 63.66523968 73 66 C68.64698737 66.26260827 64.29601643 66.42161414 59.9375 66.5625 C58.70837891 66.63791016 57.47925781 66.71332031 56.21289062 66.79101562 C47.25945677 67.00821483 47.25945677 67.00821483 43.72729492 64.18066406 C41.92178842 61.87315528 40.44575617 59.54569144 39 57 C38.2212764 55.89864255 37.42987937 54.80603667 36.62109375 53.7265625 C35.90050781 52.70304687 35.17992187 51.67953125 34.4375 50.625 C30.41950565 44.95087131 26.32131519 39.34023295 22.1875 33.75 C17.34023234 27.19150098 12.52465649 20.61157948 7.75 14 C7.20110107 13.24041992 6.65220215 12.48083984 6.08666992 11.69824219 C0 3.25584668 0 3.25584668 0 0 Z M105 21 C103.08679661 23.23421963 103.08679661 23.23421963 101.125 26.0625 C100.44695312 27.00222656 99.76890625 27.94195313 99.0703125 28.91015625 C96.88548604 32.17090669 94.94736651 35.59210861 93 39 C99.27 39 105.54 39 112 39 C109.82056621 29.9068796 109.82056621 29.9068796 107 21 C106.34 21 105.68 21 105 21 Z " fill="#9F248B" transform="translate(249,3)"/>
<path d="M0 0 C0.9624765 0.00141495 1.924953 0.0028299 2.91659546 0.00428772 C5.95224282 0.00982818 8.98781291 0.02236909 12.0234375 0.03515625 C14.09765518 0.04017896 16.17187402 0.04474051 18.24609375 0.04882812 C23.29690419 0.05977801 28.3476578 0.07700061 33.3984375 0.09765625 C33.85339785 5.86048729 32.18943602 10.70333928 30.3984375 16.09765625 C29.5794397 16.10645561 29.5794397 16.10645561 28.74389648 16.11543274 C23.03287083 16.17963949 17.32239454 16.26412764 11.61181641 16.36010742 C9.48396066 16.39324907 7.35601927 16.42131412 5.22802734 16.4440918 C2.15946142 16.47783597 -0.90832732 16.53016193 -3.9765625 16.5859375 C-4.91959229 16.59232742 -5.86262207 16.59871735 -6.83422852 16.6053009 C-13.99682514 16.76277388 -19.87574714 17.67470927 -25.4140625 22.59765625 C-29.47529138 28.08580338 -31.42160102 36.37334035 -30.6015625 43.09765625 C-30.04279362 45.38263392 -30.04279362 45.38263392 -28.6015625 47.09765625 C-25.02971965 48.82763972 -22.02840997 49.3794379 -18.08203125 49.51171875 C-17.06044922 49.55039062 -16.03886719 49.5890625 -14.98632812 49.62890625 C-13.40368164 49.6753125 -13.40368164 49.6753125 -11.7890625 49.72265625 C-10.71462891 49.76132812 -9.64019531 49.8 -8.53320312 49.83984375 C-5.88959711 49.93383863 -3.24560374 50.01682474 -0.6015625 50.09765625 C0.0584375 46.46765625 0.7184375 42.83765625 1.3984375 39.09765625 C-4.2717988 37.55122817 -9.7487675 36.61248544 -15.6015625 36.09765625 C-15.2715625 33.78765625 -14.9415625 31.47765625 -14.6015625 29.09765625 C-1.0715625 29.09765625 12.4584375 29.09765625 26.3984375 29.09765625 C25.2725056 39.23104331 25.2725056 39.23104331 24.2421875 44.33984375 C23.91541016 45.96792969 23.91541016 45.96792969 23.58203125 47.62890625 C23.24365234 49.2840625 23.24365234 49.2840625 22.8984375 50.97265625 C22.67285156 52.09929688 22.44726562 53.2259375 22.21484375 54.38671875 C20.5393712 62.67485515 20.5393712 62.67485515 19.3984375 66.09765625 C12.6581969 66.17441142 5.9180711 66.22654864 -0.82250977 66.26245117 C-3.11031303 66.27743573 -5.39808807 66.29783037 -7.68579102 66.32397461 C-41.4140183 66.69946895 -41.4140183 66.69946895 -51.6015625 57.09765625 C-55.99072761 51.96535207 -56.24076678 47.81071198 -56.1015625 41.34765625 C-56.08875244 40.45457764 -56.07594238 39.56149902 -56.06274414 38.64135742 C-55.86214903 32.12529021 -55.12871996 26.70761589 -51.6015625 21.09765625 C-50.87259766 19.9375 -50.87259766 19.9375 -50.12890625 18.75390625 C-42.73558522 8.26692607 -33.00056936 3.54068091 -20.6015625 1.09765625 C-13.72566701 0.19261833 -6.92769641 -0.03925615 0 0 Z " fill="#9F248B" transform="translate(61.6015625,2.90234375)"/>
<path d="M0 0 C1.6178329 0.01006579 3.23567198 0.01918518 4.85351562 0.02734375 C8.75666743 0.04903572 12.65951216 0.08335959 16.5625 0.125 C14.93383821 3.65042917 13.35809868 5.28198633 10.1875 7.5625 C7.42782602 9.55149579 5.73459633 10.8218457 4.0390625 13.80859375 C-0.11679456 17.69569665 -5.21658911 16.7876871 -10.6875 16.75 C-24.36732614 16.67465967 -24.36732614 16.67465967 -35.4375 24.125 C-19.5975 24.62 -19.5975 24.62 -3.4375 25.125 C-4.4375 33.125 -4.4375 33.125 -6.4375 40.125 C-17.6575 40.125 -28.8775 40.125 -40.4375 40.125 C-39.28198274 47.02975759 -39.28198274 47.02975759 -35.4375 49.125 C-31.19595208 50.03031062 -27.26555116 50.14727896 -22.93359375 50.0546875 C-6.90556265 49.81235457 -6.90556265 49.81235457 -2.70703125 53.56640625 C-1.27332717 56.39327264 -0.37414782 59.10844305 0.5625 62.125 C2.0475 63.115 2.0475 63.115 3.5625 64.125 C3.5625 64.785 3.5625 65.445 3.5625 66.125 C-2.32327487 66.22486957 -8.20854215 66.29693547 -14.0949707 66.34472656 C-16.09180305 66.36467719 -18.08857824 66.39184772 -20.08520508 66.42675781 C-48.1092624 66.90400196 -48.1092624 66.90400196 -58.4375 58.125 C-63.2882599 53.16399555 -65.44256048 49.08229459 -65.43359375 42.0703125 C-64.7576845 29.61632496 -60.85512523 19.6008627 -51.4375 11.125 C-37.38850041 -1.00604743 -17.51035454 -0.19264116 0 0 Z " fill="#9F248B" transform="translate(155.4375,2.875)"/>
<path d="M0 0 C7.26 0 14.52 0 22 0 C22 7.87386621 22 7.87386621 21.265625 11.21948242 C21.10545898 11.96683151 20.94529297 12.7141806 20.78027344 13.48417664 C20.6052832 14.26670303 20.43029297 15.04922943 20.25 15.85546875 C20.07243164 16.67952713 19.89486328 17.50358551 19.71191406 18.35261536 C19.14804318 20.96576733 18.57476137 23.57672364 18 26.1875 C17.42633046 28.80919867 16.85479267 31.43130676 16.28808594 34.05451965 C15.93627715 35.68150559 15.58032755 37.30760309 15.21972656 38.93266296 C14.46774383 42.39708391 14 45.43640545 14 49 C18.55455339 49.86591983 22.95383455 50.18670737 27.5859375 50.31640625 C28.28772125 50.33718735 28.989505 50.35796844 29.71255493 50.37937927 C31.93327958 50.44426324 34.15411276 50.5034723 36.375 50.5625 C37.88933371 50.60574354 39.40365683 50.6493596 40.91796875 50.69335938 C44.61186655 50.79988086 48.30588354 50.90131677 52 51 C52.36263859 56.8022175 51.25684543 60.63999211 49 66 C43.89544055 66.04979311 38.7910255 66.08590409 33.6862793 66.10986328 C31.95318129 66.11986161 30.2200999 66.13346473 28.48706055 66.15087891 C25.98221716 66.17540084 23.47759864 66.18654496 20.97265625 66.1953125 C20.20977798 66.20563507 19.44689972 66.21595764 18.66090393 66.22659302 C9.24317815 66.2285153 1.14915488 64.4238783 -6 58 C-10.90305486 50.12539673 -9.14471447 41.32167064 -7.28515625 32.6953125 C-7.10995956 31.8495163 -6.93476288 31.00372009 -6.7542572 30.1322937 C-6.19866848 27.46137399 -5.6305852 24.79328628 -5.0625 22.125 C-4.68476759 20.31266225 -4.3078075 18.50016334 -3.93164062 16.6875 C-1.19466616 3.58399847 -1.19466616 3.58399847 0 0 Z " fill="#9F248B" transform="translate(402,3)"/>
<path d="M0 0 C2.16389095 -0.00965915 4.32681184 -0.04069725 6.49047852 -0.07226562 C18.26033682 -0.16338787 28.32453002 1.29518803 37.50024414 9.24023438 C42.10138502 14.14885006 43.34839081 19.33241124 43.63305664 25.95507812 C43.11461501 38.77888428 38.90937052 50.34392768 29.50024414 59.24023438 C15.55978761 70.26363503 -3.68099131 71.25920685 -20.71459961 69.71289062 C-31.35930714 68.38367534 -40.42896459 64.55881233 -47.49975586 56.24023438 C-51.814118 47.99129549 -50.52605832 35.29966874 -47.93725586 26.67773438 C-44.02035436 16.74117372 -37.08585795 9.40465061 -27.49975586 4.79882812 C-18.1082757 0.75911056 -10.13959457 0.02733351 0 0 Z M-37.03881836 17.49804688 C-44.03018223 25.83534176 -46.15640708 34.40532689 -45.83959961 45.18945312 C-45.15026705 51.37759947 -42.80818009 55.42511142 -38.18725586 59.55273438 C-26.57566855 67.41519294 -8.43563168 66.39336863 4.93774414 64.49023438 C16.61480864 62.21568958 26.65212626 57.20981994 33.50024414 47.24023438 C38.244931 38.44229744 40.15087313 29.17815925 38.50024414 19.24023438 C34.93959943 12.89831353 30.61445296 8.8462194 23.82836914 6.19726562 C4.59685626 0.89116168 -22.80823693 1.93126062 -37.03881836 17.49804688 Z " fill="#A3C83F" transform="translate(206.499755859375,1.759765625)"/>
<path d="M0 0 C2.375 1 2.375 1 4 3 C4.39890259 5.79793646 4.23042244 8.14276177 4 11 C3.67 11.33 3.34 11.66 3 12 C2.92794489 13.68608966 2.91613932 15.37500659 2.9375 17.0625 C2.94652344 17.98160156 2.95554688 18.90070312 2.96484375 19.84765625 C2.97644531 20.55792969 2.98804688 21.26820312 3 22 C4.11375 22.0928125 4.11375 22.0928125 5.25 22.1875 C8.99810061 23.29489336 10.0092057 24.65830956 12 28 C13.27208722 32.20567611 13.30255243 35.15603796 11.8125 39.3125 C9.49493997 42.74888212 8.02693694 44.46618836 3.953125 45.5390625 C-0.30453809 46.26772296 -2.42612114 46.28693943 -6.375 44.3125 C-11.88228753 39.46084194 -11.88228753 39.46084194 -12.15234375 36.109375 C-12.20068359 35.06523438 -12.20068359 35.06523438 -12.25 34 C-12.38324218 31.91379201 -12.38324218 31.91379201 -13 30 C-16.81520349 26.88554817 -19.23803575 25.77744375 -24.125 26 C-28 26 -28 26 -30.9375 24.375 C-33.47315166 21.45515869 -34 19.85701519 -34 16 C-31.86956522 11.43478261 -31.86956522 11.43478261 -29 10 C-25.68998979 9.87509395 -22.72404967 9.81898758 -19.5 10.625 C-15.99619989 11.15057002 -13.3176027 10.10586757 -10 9 C-9.896875 7.88625 -9.79375 6.7725 -9.6875 5.625 C-9.460625 4.42875 -9.23375 3.2325 -9 2 C-5.51131349 -0.32579101 -4.10281481 -0.41865457 0 0 Z " fill="#FAF6FA" transform="translate(212,15)"/>
<path d="M0 0 C3.60346395 1.20115465 4.02642381 2.17225246 6 5.3125 C7.49888102 7.67401827 8.96868818 9.95977301 10.6875 12.16796875 C12 14 12 14 12 16 C10.26050962 17.75406711 8.37050681 19.27168547 6.46240234 20.84008789 C3.97212127 22.94323741 3.97212127 22.94323741 1.875 25.33349609 C-2.83833851 30.31380105 -6.1429591 32.59139509 -13.1015625 32.87890625 C-15.61089547 32.81978584 -18.11951367 32.71344846 -20.625 32.5625 C-21.91535156 32.52189453 -23.20570313 32.48128906 -24.53515625 32.43945312 C-27.69410513 32.33415483 -30.84500239 32.18684689 -34 32 C-32.27927995 28.26139768 -30.39808868 26.47532963 -27.125 23.9375 C-22.87211911 20.55414652 -18.79588369 17.07108683 -14.8125 13.375 C-10.73876793 9.59773016 -6.62680309 5.87785443 -2.42578125 2.2421875 C-1.59556994 1.51888012 -0.7785963 0.7785963 0 0 Z " fill="#9F248B" transform="translate(268,37)"/>
<path d="M0 0 C1.79244141 0.05414063 1.79244141 0.05414063 3.62109375 0.109375 C6.54250415 0.20286013 9.45698148 0.33373114 12.375 0.5 C12.375 1.49 12.375 2.48 12.375 3.5 C10.79296875 4.97265625 10.79296875 4.97265625 8.5625 6.5625 C4.84532089 9.32566131 1.40023719 12.22916905 -2 15.375 C-16.62418737 28.82678417 -16.62418737 28.82678417 -22.625 31.5 C-24.3006417 29.40245565 -25.96550194 27.29775361 -27.625 25.1875 C-28.10195313 24.59259766 -28.57890625 23.99769531 -29.0703125 23.38476562 C-32.625 18.83984375 -32.625 18.83984375 -32.625 15.5 C-30.66631455 13.63120591 -28.52166064 12.14804047 -26.32568359 10.56640625 C-23.63145754 8.58194445 -23.63145754 8.58194445 -21.41601562 6.39526367 C-14.52598299 -0.01464029 -9.17451459 -0.53185592 0 0 Z " fill="#9F248B" transform="translate(321.625,2.5)"/>
<path d="M0 0 C-1.14200564 3.42601693 -2.20308055 4.24521651 -4.9375 6.5 C-7.50975192 8.62876021 -9.12260763 10.18391145 -11 13 C-10.67 13.99 -10.34 14.98 -10 16 C-10.57364659 17.8160671 -11.23304516 19.60556124 -11.9375 21.375 C-14.66250924 29.21770952 -15.84211052 37.65907881 -12.4375 45.5 C-9.28505201 50.62812601 -5.62577879 53.15648557 0.015625 54.96875 C11.24941508 57.64110535 22.52604677 57.30662202 34 57 C31.05618512 58.67128932 28.82616606 59.27731759 25.453125 59.4140625 C24.69161133 59.44967285 23.93009766 59.4852832 23.14550781 59.52197266 C22.18999023 59.55597168 21.23447266 59.5899707 20.25 59.625 C17.1975 59.74875 14.145 59.8725 11 60 C17.27 60.33 23.54 60.66 30 61 C30 61.33 30 61.66 30 62 C15.6151765 64.0510153 1.39097419 63.14610538 -11 55 C-15.23012641 51.54683559 -18.44900034 47.58260245 -19.30444336 42.02050781 C-19.43980901 39.79631452 -19.46745342 37.60310988 -19.4375 35.375 C-19.42920166 34.58101807 -19.42090332 33.78703613 -19.41235352 32.96899414 C-19.06787954 20.8658215 -14.9745498 11.76801416 -6.28515625 3.3359375 C-2.47398743 0 -2.47398743 0 0 0 Z " fill="#A1C93B" transform="translate(176,9)"/>
<path d="M0 0 C10 0 10 0 13.125 1.0625 C15 3 15 3 15.375 6.4375 C15 10 15 10 14.375 12.25 C14.25125 12.8275 14.1275 13.405 14 14 C14.99 15.485 14.99 15.485 16 17 C16 17.99 16 18.98 16 20 C13.1875 20.3125 13.1875 20.3125 10 20 C8.125 17.5 8.125 17.5 7 15 C6.67 16.65 6.34 18.3 6 20 C4.02 20 2.04 20 0 20 C0 13.4 0 6.8 0 0 Z M6 5 C6.33 6.32 6.66 7.64 7 9 C7.66 8.67 8.32 8.34 9 8 C8.67 7.01 8.34 6.02 8 5 C7.34 5 6.68 5 6 5 Z " fill="#5D5E61" transform="translate(186,85)"/>
<path d="M0 0 C4.62 0 9.24 0 14 0 C14 1.65 14 3.3 14 5 C11.36 5 8.72 5 6 5 C6 5.66 6 6.32 6 7 C8.31 7 10.62 7 13 7 C13 8.65 13 10.3 13 12 C10.69 12 8.38 12 6 12 C6 12.99 6 13.98 6 15 C8.97 15 11.94 15 15 15 C15 16.65 15 18.3 15 20 C10.05 20 5.1 20 0 20 C0 13.4 0 6.8 0 0 Z " fill="#5D5E61" transform="translate(130,85)"/>
<path d="M0 0 C1.98 0 3.96 0 6 0 C6 4.95 6 9.9 6 15 C7.32 15 8.64 15 10 15 C10.33 10.05 10.66 5.1 11 0 C12.65 0 14.3 0 16 0 C16.08112454 2.58396679 16.14054748 5.16537568 16.1875 7.75 C16.21263672 8.47960937 16.23777344 9.20921875 16.26367188 9.9609375 C16.30744161 13.17071817 16.20404673 15.58867796 14.765625 18.48828125 C12.55675214 20.37950646 11.44418586 20.51039256 8.5625 20.4375 C7.80066406 20.43621094 7.03882813 20.43492188 6.25390625 20.43359375 C3.24784371 19.85530442 2.01730291 19.34972529 0 17 C-0.49383239 14.0906747 -0.37541244 11.25245694 -0.25 8.3125 C-0.23195312 7.51521484 -0.21390625 6.71792969 -0.1953125 5.89648438 C-0.14822247 3.93047551 -0.07647899 1.96508506 0 0 Z " fill="#5D5E61" transform="translate(166,85)"/>
<path d="M0 0 C2.475 0.495 2.475 0.495 5 1 C5.33 1.99 5.66 2.98 6 4 C6.66 4 7.32 4 8 4 C9.38938077 5.96147874 10.7260411 7.96166576 12 10 C12.33 6.7 12.66 3.4 13 0 C14.32 0 15.64 0 17 0 C17 6.6 17 13.2 17 20 C12 19 12 19 9.98046875 16.71484375 C9.38878906 15.79832031 8.79710937 14.88179687 8.1875 13.9375 C7.58292969 13.01839844 6.97835938 12.09929687 6.35546875 11.15234375 C5.90816406 10.44207031 5.46085937 9.73179688 5 9 C4.67 12.63 4.34 16.26 4 20 C2.68 20 1.36 20 0 20 C0 13.4 0 6.8 0 0 Z " fill="#5D5E61" transform="translate(375,85)"/>
<path d="M0 0 C1.17755859 0.02320312 1.17755859 0.02320312 2.37890625 0.046875 C4.4375 0.25 4.4375 0.25 6.4375 1.25 C6.1075 2.9 5.7775 4.55 5.4375 6.25 C3.4575 6.25 1.4775 6.25 -0.5625 6.25 C0.860625 6.8996875 0.860625 6.8996875 2.3125 7.5625 C5.4375 9.25 5.4375 9.25 7.4375 12.25 C7.1875 15.875 7.1875 15.875 6.4375 19.25 C3.79291621 20.57229189 1.75988699 20.34677194 -1.1875 20.3125 C-2.19039063 20.30347656 -3.19328125 20.29445313 -4.2265625 20.28515625 C-4.99742188 20.27355469 -5.76828125 20.26195313 -6.5625 20.25 C-6.8925 18.6 -7.2225 16.95 -7.5625 15.25 C-4.63425348 14.27391783 -2.60636724 14.16773332 0.4375 14.25 C-0.14 13.95867187 -0.7175 13.66734375 -1.3125 13.3671875 C-3.56744095 12.12227218 -5.58549408 10.90396573 -7.5625 9.25 C-8.25 6.125 -8.25 6.125 -7.5625 3.25 C-5.29096899 0.2448068 -3.69760505 -0.12183213 0 0 Z " fill="#5D5E61" transform="translate(120.5625,84.75)"/>
<path d="M0 0 C3.5 0.25 3.5 0.25 5.5 2.25 C5.88079379 5.86754103 5.34651134 8.13401212 3.5 11.25 C3.83 10.59 4.16 9.93 4.5 9.25 C5.82 9.58 7.14 9.91 8.5 10.25 C8.45875 11.1575 8.4175 12.065 8.375 13 C8.49531556 16.1282046 8.8914708 17.63614006 10.5 20.25 C7.83333333 20.25 5.16666667 20.25 2.5 20.25 C0.7675 20.3428125 0.7675 20.3428125 -1 20.4375 C-4.5 20.25 -4.5 20.25 -6.5 19.1875 C-8.10015858 16.08719275 -7.22191956 13.55879799 -6.5 10.25 C-6.17 9.59 -5.84 8.93 -5.5 8.25 C-5.520625 7.26 -5.54125 6.27 -5.5625 5.25 C-5.46870442 0.747812 -4.40458671 0.31461334 0 0 Z M-1.5 4.25 C-1.5 5.24 -1.5 6.23 -1.5 7.25 C-0.84 7.25 -0.18 7.25 0.5 7.25 C0.83 6.26 1.16 5.27 1.5 4.25 C0.51 4.25 -0.48 4.25 -1.5 4.25 Z M-2.5 12.25 C-2.5 13.57 -2.5 14.89 -2.5 16.25 C-0.85 16.25 0.8 16.25 2.5 16.25 C1.13676257 14.2100281 1.13676257 14.2100281 -0.5 12.25 C-1.16 12.25 -1.82 12.25 -2.5 12.25 Z " fill="#5D5E61" transform="translate(94.5,84.75)"/>
<path d="M0 0 C3 1.9375 3 1.9375 5 5 C5.83244577 9.42637031 5.49997008 12.90915619 3.625 17 C1.78338579 19.26660211 0.85988216 19.89873975 -2.0234375 20.23828125 C-8.41339001 20.43995749 -8.41339001 20.43995749 -11.5 18.125 C-14.25744415 14.21862079 -14.67633214 10.70727167 -14 6 C-10.36085898 0.29867907 -6.68794267 -1.08695053 0 0 Z M-9 6 C-9.3176246 7.91006306 -9.3176246 7.91006306 -9.25 10 C-9.25515625 10.70125 -9.2603125 11.4025 -9.265625 12.125 C-9.15705515 14.2435669 -9.15705515 14.2435669 -7 16 C-3.91652174 16.16681109 -3.91652174 16.16681109 -1 16 C0.89089494 11.07744647 0.89089494 11.07744647 -0.0625 6.0625 C-1.83173725 3.76359138 -1.83173725 3.76359138 -4.5625 3.5625 C-7.17213728 3.79142762 -7.17213728 3.79142762 -9 6 Z " fill="#5D5E61" transform="translate(287,85)"/>
<path d="M0 0 C2.8774501 0.62699302 4.50058745 2.21264799 6.1640625 4.58984375 C7.75873402 8.08187907 7.49219207 10.6230109 7.0078125 14.4375 C4.86892361 19.00694444 4.86892361 19.00694444 2.0078125 20.4375 C-2.18959996 20.93178988 -5.77379761 21.13807419 -9.4921875 19 C-11.6804789 15.26166886 -12.20000377 11.74776346 -11.9921875 7.4375 C-9.5719805 1.75001355 -6.23039557 -0.18392312 0 0 Z M-6.9296875 6.5 C-8.34777969 10.42060782 -7.4183852 12.60928513 -5.9921875 16.4375 C-3.07566576 16.60431109 -3.07566576 16.60431109 0.0078125 16.4375 C2.63814704 13.80716546 2.78743622 12.11043796 3.0078125 8.4375 C2.03677462 5.97563421 2.03677462 5.97563421 0.0078125 4.4375 C-3.47327992 3.65425421 -4.46852534 3.88005319 -6.9296875 6.5 Z " fill="#5D5E61" transform="translate(364.9921875,84.5625)"/>
<path d="M0 0 C1.051875 -0.00386719 1.051875 -0.00386719 2.125 -0.0078125 C4 0.125 4 0.125 6 1.125 C5.67 2.775 5.34 4.425 5 6.125 C2.36 6.125 -0.28 6.125 -3 6.125 C-3.20970559 10.26593698 -3.20970559 10.26593698 -2 14.125 C0.64 14.125 3.28 14.125 6 14.125 C6.33 15.775 6.66 17.425 7 19.125 C3.26690106 20.99154947 -0.93447193 20.6674959 -5 20.125 C-8.125 18.1875 -8.125 18.1875 -10 15.125 C-10.93971476 10.44335797 -10.66873692 7.19497908 -8.125 3.125 C-5.28364542 0.45078393 -3.79646655 -0.0139576 0 0 Z " fill="#5D5E61" transform="translate(157,84.875)"/>
<path d="M0 0 C2.8125 -0.3125 2.8125 -0.3125 6 0 C7.875 2.5 7.875 2.5 9 5 C9.37125 4.175 9.7425 3.35 10.125 2.5 C10.74375 1.675 11.3625 0.85 12 0 C15.1875 -0.3125 15.1875 -0.3125 18 0 C17.60972819 3.31731036 16.99491513 5.0069917 15 7.75 C12.47985576 11.8452344 12.20991671 15.27687397 12 20 C10.02 20 8.04 20 6 20 C5.9071875 18.2675 5.9071875 18.2675 5.8125 16.5 C5.30285147 12.14482162 3.61255688 9.36112614 1.05859375 5.859375 C0 4 0 4 0 0 Z " fill="#5D5E61" transform="translate(231,85)"/>
<path d="M0 0 C5.61 0 11.22 0 17 0 C17 1.98 17 3.96 17 6 C15.35 6 13.7 6 12 6 C12 10.62 12 15.24 12 20 C10.02 20 8.04 20 6 20 C6 15.38 6 10.76 6 6 C4.02 6 2.04 6 0 6 C0 4.02 0 2.04 0 0 Z " fill="#5D5E61" transform="translate(61,85)"/>
<path d="M0 0 C5.28 0 10.56 0 16 0 C16 1.98 16 3.96 16 6 C14.35 6 12.7 6 11 6 C11 10.62 11 15.24 11 20 C9.02 20 7.04 20 5 20 C5 15.38 5 10.76 5 6 C3.35 6 1.7 6 0 6 C0 4.02 0 2.04 0 0 Z " fill="#5D5E61" transform="translate(213,85)"/>
<path d="M0 0 C1.8359375 1.60546875 1.8359375 1.60546875 3 3 C-0.70643568 4.23547856 -1.50641242 3.47043537 -5 2 C-19.89396802 -0.60521553 -38.73842132 -0.93614054 -52.328125 6.29296875 C-52.87984375 6.52628906 -53.4315625 6.75960938 -54 7 C-54.66 6.67 -55.32 6.34 -56 6 C-55 3 -55 3 -53.1015625 1.90234375 C-37.26616733 -4.26696635 -16.19544673 -6.40959862 0 0 Z " fill="#A62688" transform="translate(233,9)"/>
<path d="M0 0 C1.32 0 2.64 0 4 0 C4.33 5.28 4.66 10.56 5 16 C6.65 16 8.3 16 10 16 C10.33 10.72 10.66 5.44 11 0 C12.32 0 13.64 0 15 0 C15.08112454 2.58396679 15.14054748 5.16537568 15.1875 7.75 C15.22520508 8.84441406 15.22520508 8.84441406 15.26367188 9.9609375 C15.30741206 13.16855091 15.20324035 15.58900286 13.76953125 18.48828125 C11.54481422 20.38886732 10.39942966 20.50998574 7.5 20.4375 C6.7265625 20.43621094 5.953125 20.43492188 5.15625 20.43359375 C2.47552756 19.89453543 1.69670575 19.11377141 0 17 C-0.34057617 15.09887695 -0.34057617 15.09887695 -0.29296875 12.98828125 C-0.28330078 12.23095703 -0.27363281 11.47363281 -0.26367188 10.69335938 C-0.23853516 9.90767578 -0.21339844 9.12199219 -0.1875 8.3125 C-0.17396484 7.51521484 -0.16042969 6.71792969 -0.14648438 5.89648438 C-0.11117089 3.93070033 -0.05736447 1.96526418 0 0 Z " fill="#5D5E61" transform="translate(310,85)"/>
<path d="M0 0 C1.21816406 0.03480469 1.21816406 0.03480469 2.4609375 0.0703125 C3.68683594 0.09738281 3.68683594 0.09738281 4.9375 0.125 C5.87722656 0.15980469 5.87722656 0.15980469 6.8359375 0.1953125 C7.1659375 1.8453125 7.4959375 3.4953125 7.8359375 5.1953125 C5.5259375 5.1953125 3.2159375 5.1953125 0.8359375 5.1953125 C1.75260417 7.52864583 1.75260417 7.52864583 4.8359375 8.6953125 C7.8359375 10.1953125 7.8359375 10.1953125 8.8359375 12.1953125 C9.0859375 15.1953125 9.0859375 15.1953125 8.8359375 18.1953125 C5.6781615 20.3004965 4.88196616 20.44820594 1.2734375 20.3828125 C0.48839844 20.37636719 -0.29664063 20.36992188 -1.10546875 20.36328125 C-3.1640625 20.1953125 -3.1640625 20.1953125 -5.1640625 19.1953125 C-4.8340625 17.8753125 -4.5040625 16.5553125 -4.1640625 15.1953125 C-1.1940625 15.5253125 1.7759375 15.8553125 4.8359375 16.1953125 C2.50687133 12.70171324 0.57117788 11.94372289 -3.1640625 10.1953125 C-4.1640625 9.1953125 -4.1640625 9.1953125 -4.3515625 5.7578125 C-4.15242648 1.97422818 -4.00575463 0.3615302 0 0 Z " fill="#5D5E61" transform="translate(262.1640625,84.8046875)"/>
<path d="M0 0 C0.66 0.33 1.32 0.66 2 1 C1.34 2.32 0.68 3.64 0 5 C-1.98 5 -3.96 5 -6 5 C-4.16511712 7.02802845 -2.83425933 8.07708868 -0.3125 9.25 C2 11 2 11 2.5 14.5625 C2.335 15.696875 2.17 16.83125 2 18 C-1.31371 20.20914 -2.3446021 20.22481553 -6.1875 20.125 C-7.08855469 20.10695313 -7.98960937 20.08890625 -8.91796875 20.0703125 C-9.60503906 20.04710938 -10.29210937 20.02390625 -11 20 C-11 18.68 -11 17.36 -11 16 C-7.93109813 14.46554906 -5.29905734 15.45015711 -2 16 C-4.1738176 13.66515887 -5.8462205 12.07339476 -8.75 10.6875 C-9.4925 10.130625 -10.235 9.57375 -11 9 C-11.5 5.4375 -11.5 5.4375 -11 2 C-6.94641576 -0.70238949 -4.81689896 -0.22937614 0 0 Z " fill="#5D5E61" transform="translate(406,85)"/>
<path d="M0 0 C1.35439668 2.70879335 1.06501451 5.00933268 1 8 C-5.5 11 -5.5 11 -10 11 C-12.0302589 10.06295743 -14.03696582 9.07074592 -16 8 C-16 6.02 -16 4.04 -16 2 C-10.35896957 -2.08074542 -6.54834983 -2.78234607 0 0 Z " fill="#A53791" transform="translate(210,29)"/>
<path d="M0 0 C1.875 0.30859375 1.875 0.30859375 3.875 1.30859375 C5.50541883 4.56943141 5.53464122 7.75097821 4.875 11.30859375 C3.25 13.30859375 3.25 13.30859375 0.875 14.30859375 C-3.22781481 14.72724832 -4.63631349 14.63438476 -8.125 12.30859375 C-9.6283557 5.65087563 -9.6283557 5.65087563 -8.1875 1.80859375 C-5.42061099 -0.20368916 -3.36061899 -0.20386108 0 0 Z M0.875 4.30859375 C1.875 8.30859375 1.875 8.30859375 1.875 8.30859375 Z M-6.125 5.30859375 C-5.125 8.30859375 -5.125 8.30859375 -5.125 8.30859375 Z " fill="#9F248B" transform="translate(451.125,5.69140625)"/>
<path d="M0 0 C0 0.33 0 0.66 0 1 C-0.69335449 0.99887207 -1.38670898 0.99774414 -2.10107422 0.99658203 C-27.93519095 1.01567362 -27.93519095 1.01567362 -50.51953125 12.4765625 C-52.85419275 14.87898463 -54.96842056 17.33355198 -57 20 C-57.99 19.34 -58.98 18.68 -60 18 C-52.05164523 7.8437689 -42.89948924 1.76110048 -30 0 C-29.21109375 -0.10957031 -28.4221875 -0.21914063 -27.609375 -0.33203125 C-18.33180544 -1.42608426 -9.24871161 -1.21294578 0 0 Z " fill="#A6C545" transform="translate(224,4)"/>
<path d="M0 0 C1.65 0 3.3 0 5 0 C5 5.28 5 10.56 5 16 C7.64 16 10.28 16 13 16 C13 17.32 13 18.64 13 20 C8.71 20 4.42 20 0 20 C0 13.4 0 6.8 0 0 Z " fill="#5D5E61" transform="translate(295,85)"/>
<path d="M0 0 C5.28 0 10.56 0 16 0 C16 1.32 16 2.64 16 4 C14.02 4 12.04 4 10 4 C10 9.28 10 14.56 10 20 C8.68 20 7.36 20 6 20 C6 14.72 6 9.44 6 4 C4.02 4 2.04 4 0 4 C0 2.68 0 1.36 0 0 Z " fill="#5D5E61" transform="translate(327,85)"/>
<path d="M0 0 C1.98 0 3.96 0 6 0 C6 6.6 6 13.2 6 20 C4.02 20 2.04 20 0 20 C0 13.4 0 6.8 0 0 Z " fill="#5D5E61" transform="translate(204,85)"/>
<path d="M0 0 C5.36842105 -0.35789474 5.36842105 -0.35789474 7.875 1.0625 C9.66235303 4.14071911 9.43386742 6.52906068 9 10 C6.89172636 12.42061048 5.59654522 12.9127007 2.4375 13.375 C0 13 0 13 -1.8125 11.6875 C-3 10 -3 10 -3 7 C-2.01 6.67 -1.02 6.34 0 6 C0 4.02 0 2.04 0 0 Z " fill="#AD3294" transform="translate(209,42)"/>
<path d="M0 0 C1.65 0 3.3 0 5 0 C5 6.6 5 13.2 5 20 C3.35 20 1.7 20 0 20 C0 13.4 0 6.8 0 0 Z " fill="#5D5E61" transform="translate(345,85)"/>
<path d="M0 0 C1.65 0 3.3 0 5 0 C5 6.6 5 13.2 5 20 C3.35 20 1.7 20 0 20 C0 13.4 0 6.8 0 0 Z " fill="#5D5E61" transform="translate(54,85)"/>
<path d="M0 0 C-2.18144224 1.15879664 -4.36903017 2.30187378 -6.5625 3.4375 C-7.17158203 3.76298828 -7.78066406 4.08847656 -8.40820312 4.42382812 C-9.01728516 4.73642578 -9.62636719 5.04902344 -10.25390625 5.37109375 C-11.07870483 5.8031311 -11.07870483 5.8031311 -11.92016602 6.24389648 C-17.02851755 8.10098824 -22.43237592 8.12243145 -27.80859375 8.09765625 C-29.04931641 8.09443359 -30.29003906 8.09121094 -31.56835938 8.08789062 C-32.84517578 8.07951172 -34.12199219 8.07113281 -35.4375 8.0625 C-37.39333008 8.05573242 -37.39333008 8.05573242 -39.38867188 8.04882812 C-42.59249552 8.03709251 -45.79622363 8.02067363 -49 8 C-49 7.67 -49 7.34 -49 7 C-48.14341797 7.00954712 -48.14341797 7.00954712 -47.26953125 7.01928711 C-31.86604156 7.06979537 -18.6178423 4.52295606 -4.06518555 -0.48681641 C-2 -1 -2 -1 0 0 Z " fill="#B9D262" transform="translate(232,61)"/>
<path d="M0 0 C4.2276653 0.78234376 8.21716198 1.96693311 12.3046875 3.28125 C19.32887255 5.15436601 26.22676636 5.12348864 33.4375 5.0625 C34.45521484 5.05798828 35.47292969 5.05347656 36.52148438 5.04882812 C39.01438509 5.03712437 41.50716074 5.02072848 44 5 C38.63599916 8.26387878 32.38744634 7.32802107 26.3125 7.3125 C25.07048828 7.32861328 23.82847656 7.34472656 22.54882812 7.36132812 C14.10352311 7.36580364 7.12473981 6.74982654 0 2 C0 1.34 0 0.68 0 0 Z " fill="#A7C348" transform="translate(166,61)"/>
<path d="M0 0 C0 0.33 0 0.66 0 1 C-1.07145264 1.02187378 -1.07145264 1.02187378 -2.16455078 1.04418945 C-21.28019799 1.46169084 -21.28019799 1.46169084 -40 5 C-41.6640792 5.34601921 -43.33002684 5.68364807 -45 6 C-44 4 -44 4 -40.375 2.5 C-27.28494815 -1.60627423 -13.4800072 -1.7678698 0 0 Z " fill="#BED969" transform="translate(224,4)"/>
<path d="M0 0 C2.8125 -0.25 2.8125 -0.25 6 0 C7.875 2 7.875 2 9 4 C8 5 8 5 4.4375 5.0625 C3.303125 5.041875 2.16875 5.02125 1 5 C0.67 3.35 0.34 1.7 0 0 Z " fill="#BB63AA" transform="translate(209,42)"/>
<path d="M0 0 C0.33 0.66 0.66 1.32 1 2 C2.98 1.67 4.96 1.34 7 1 C7 2.98 7 4.96 7 7 C6.67 6.34 6.34 5.68 6 5 C5.05125 5.04125 4.1025 5.0825 3.125 5.125 C0 5 0 5 -2 3 C-1.34 2.01 -0.68 1.02 0 0 Z " fill="#A93B94" transform="translate(211,45)"/>
<path d="M0 0 C0 2.33333333 0 4.66666667 0 7 C1.98 7.99 3.96 8.98 6 10 C6 10.66 6 11.32 6 12 C2.9168649 10.80100302 -0.06279492 9.52299523 -3 8 C-3.1875 5.125 -3.1875 5.125 -3 2 C-2.01 1.34 -1.02 0.68 0 0 Z " fill="#AA4097" transform="translate(197,29)"/>
<path d="M0 0 C1.16273438 0.37640625 2.32546875 0.7528125 3.5234375 1.140625 C4.69132813 1.50671875 5.85921875 1.8728125 7.0625 2.25 C9.8984375 3.390625 9.8984375 3.390625 10.8984375 5.390625 C5.14081584 4.30165833 -0.49404069 3.09726207 -6.1015625 1.390625 C-3.1015625 -0.609375 -3.1015625 -0.609375 0 0 Z " fill="#B0CE51" transform="translate(227.1015625,4.609375)"/>
<path d="M0 0 C-0.33 1.32 -0.66 2.64 -1 4 C-3.97 3.505 -3.97 3.505 -7 3 C-7 2.34 -7 1.68 -7 1 C-4.53721199 -0.231394 -2.7204945 -0.07159196 0 0 Z " fill="#A1268C" transform="translate(217,50)"/>
<path d="M0 0 C0.66 0.33 1.32 0.66 2 1 C0.68 1.99 -0.64 2.98 -2 4 C-1.34 2.68 -0.68 1.36 0 0 Z M-3 4 C-1.68 4.66 -0.36 5.32 1 6 C-1.31 6.33 -3.62 6.66 -6 7 C-5.01 6.01 -4.02 5.02 -3 4 Z " fill="#A61E89" transform="translate(221,57)"/>
</svg>
