<?xml version="1.0" encoding="UTF-8"?>
<svg version="1.1" xmlns="http://www.w3.org/2000/svg" width="500" height="95">
<path d="M0 0 C9.05453561 7.33508844 13.23352353 17.27553766 15.19140625 28.55859375 C16.15909058 43.57330868 4.75692678 56.79224262 -4.4765625 67.35546875 C-9.6535207 73.17364317 -15.10591192 78.50972953 -21.1875 83.375 C-25.86628309 81.91937859 -28.95742146 79.18879492 -32.4375 75.875 C-33.00815186 75.33673584 -33.57880371 74.79847168 -34.16674805 74.24389648 C-46.79305678 62.2108058 -58.88613218 48.79601536 -59.6875 30.625 C-59.38641122 19.4485844 -55.51157981 10.54174624 -47.73046875 2.5390625 C-33.71207099 -9.39057246 -15.13559029 -10.14805292 0 0 Z M-34.51171875 19.8828125 C-37.54438017 24.45840692 -38.1089933 29.00753903 -37.1875 34.375 C-35.79412478 38.5716153 -33.63701299 41.39130843 -29.9375 43.8125 C-25.82619206 45.84614483 -22.73341531 45.95225909 -18.1875 45.375 C-13.84613915 43.12083187 -10.83430186 40.49224734 -8.1875 36.375 C-7.39059162 33.18737891 -7.39059162 33.18737891 -7.1875 30.375 C-10.1575 30.375 -13.1275 30.375 -16.1875 30.375 C-16.5175 31.365 -16.8475 32.355 -17.1875 33.375 C-24.9375 33.5 -24.9375 33.5 -27.1875 32.375 C-27.1875 30.725 -27.1875 29.075 -27.1875 27.375 C-23.88789859 25.7251993 -20.19622116 25.99241639 -16.5625 25.8125 C-15.76070312 25.76931641 -14.95890625 25.72613281 -14.1328125 25.68164062 C-12.1512489 25.57548543 -10.16939729 25.47473145 -8.1875 25.375 C-10.10106649 19.89189602 -12.91675549 17.01037226 -18.1875 14.375 C-24.92987555 13.80361224 -29.88645191 14.61628448 -34.51171875 19.8828125 Z " fill="#9F248A" transform="translate(60.1875,7.625)"/>
<path d="M0 0 C6.87033675 5.88886007 9.86313648 11.55816391 10.5859375 20.56640625 C10.69976744 28.38652334 8.69057569 35.22154628 3.625 41.25 C-1.82625099 45.65739442 -7.22528977 47.68811776 -14.28125 47.51171875 C-18.80420944 46.94634882 -23.11569281 45.50930719 -26.375 42.25 C-26.705 49.18 -27.035 56.11 -27.375 63.25 C-32.325 63.25 -37.275 63.25 -42.375 63.25 C-42.375 41.47 -42.375 19.69 -42.375 -2.75 C-37.425 -2.75 -32.475 -2.75 -27.375 -2.75 C-27.045 -1.43 -26.715 -0.11 -26.375 1.25 C-25.323125 0.610625 -24.27125 -0.02875 -23.1875 -0.6875 C-15.74976438 -5.20847655 -7.48855583 -3.88295488 0 0 Z M-26.375 14.25 C-28.03755366 19.23766098 -28.20782597 24.23368448 -26.1875 29.125 C-23.9764525 31.71726259 -22.57489543 32.99786701 -19.375 34.25 C-14.9105534 34.44966219 -11.49010529 34.08632897 -7.875 31.375 C-4.79156496 27.00680036 -4.86711226 22.40143276 -5.375 17.25 C-6.96692838 13.58856471 -8.79943861 11.08609909 -12.375 9.25 C-19.06075464 8.38732198 -21.74104075 9.38999396 -26.375 14.25 Z " fill="#2E3A3C" transform="translate(376.375,27.75)"/>
<path d="M0 0 C0.886875 0.7425 1.77375 1.485 2.6875 2.25 C1.2015084 6.84306496 -1.16264682 9.68569245 -4.3125 13.25 C-7.21014867 12.64632319 -9.30019884 11.72463163 -11.8125 10.1875 C-17.69659708 7.18496074 -24.15587263 7.19411255 -30.49609375 8.8046875 C-34.47175887 10.60014917 -36.07270346 13.24940718 -37.75 17.0625 C-39.9752515 23.61356368 -39.96948121 28.98399367 -37.37109375 35.38671875 C-35.2817749 39.06422831 -32.07470126 41.36889937 -28.3125 43.25 C-26.54479673 43.37240135 -24.77189538 43.42551153 -23 43.4375 C-22.05511719 43.45167969 -21.11023438 43.46585938 -20.13671875 43.48046875 C-16.85643577 43.3523963 -16.85643577 43.3523963 -12.3125 41.25 C-11.9825 35.64 -11.6525 30.03 -11.3125 24.25 C-6.6925 24.25 -2.0725 24.25 2.6875 24.25 C2.6875 32.83 2.6875 41.41 2.6875 50.25 C-9.84854931 56.51802465 -21.12786126 61.19802229 -35 56.625 C-44.37243779 52.77989732 -50.10254845 47.55330276 -54.3125 38.25 C-57.43584894 29.23978602 -57.14350979 19.41923485 -53 10.8125 C-52.13221447 9.27549003 -51.2397331 7.75189553 -50.3125 6.25 C-49.755625 5.3425 -49.19875 4.435 -48.625 3.5 C-35.53978845 -9.23155718 -14.97788736 -10.62068376 0 0 Z " fill="#2E3A3C" transform="translate(157.3125,16.75)"/>
<path d="M0 0 C9.05453561 7.33508844 13.23352353 17.27553766 15.19140625 28.55859375 C15.87681822 39.19353435 9.64551598 49.05148281 3.8125 57.375 C-0.22885587 55.77569566 -2.86657152 52.88839591 -5.8125 49.8125 C-9.15152902 46.14785984 -9.15152902 46.14785984 -13.1875 43.375 C-12.90132812 42.81296875 -12.61515625 42.2509375 -12.3203125 41.671875 C-11.17334069 39.34629077 -10.10910206 36.99729799 -9.0625 34.625 C-8.70929687 33.82578125 -8.35609375 33.0265625 -7.9921875 32.203125 C-7.72664063 31.59984375 -7.46109375 30.9965625 -7.1875 30.375 C-8.6675841 30.48862262 -10.14660074 30.61622908 -11.625 30.75 C-12.44871094 30.81960937 -13.27242187 30.88921875 -14.12109375 30.9609375 C-15.14396484 31.16589844 -15.14396484 31.16589844 -16.1875 31.375 C-16.6825 32.365 -16.6825 32.365 -17.1875 33.375 C-24.55 34.8 -24.55 34.8 -28.1875 32.375 C-28.5625 29.875 -28.5625 29.875 -28.1875 27.375 C-25.14068939 25.34379293 -24.58631676 25.12840125 -21.17578125 25.1796875 C-20.41845703 25.18613281 -19.66113281 25.19257812 -18.88085938 25.19921875 C-17.70233398 25.22435547 -17.70233398 25.22435547 -16.5 25.25 C-15.70271484 25.25902344 -14.90542969 25.26804687 -14.08398438 25.27734375 C-12.118361 25.30088415 -10.15289225 25.33675453 -8.1875 25.375 C-11.10811925 20.81933323 -13.26661751 17.83544125 -18.1875 15.375 C-24.73226536 14.54391868 -27.69839147 15.93085347 -33.1875 19.375 C-36.1875 19.375 -36.1875 19.375 -37.72143555 18.18164062 C-38.250354 17.63701172 -38.77927246 17.09238281 -39.32421875 16.53125 C-39.90107422 15.94472656 -40.47792969 15.35820312 -41.07226562 14.75390625 C-41.66716797 14.13386719 -42.26207031 13.51382812 -42.875 12.875 C-43.48150391 12.25496094 -44.08800781 11.63492187 -44.71289062 10.99609375 C-46.21123743 9.46235293 -47.70026493 7.91951802 -49.1875 6.375 C-46.78151089 1.19353535 -43.04065627 -0.80780197 -38.1875 -3.625 C-37.59066406 -3.97175781 -36.99382813 -4.31851562 -36.37890625 -4.67578125 C-24.63387253 -10.19516235 -10.2587334 -6.87823649 0 0 Z " fill="#A0C93A" transform="translate(60.1875,7.625)"/>
<path d="M0 0 C3.59392917 2.71608008 5.24618289 6.14473187 6.5625 10.375 C6.93424183 13.23963069 6.91491829 16.0489087 6.85546875 18.93359375 C6.85122391 19.72274673 6.84697906 20.51189972 6.84260559 21.32496643 C6.82594452 23.82117261 6.78831779 26.31654192 6.75 28.8125 C6.73493683 30.51496222 6.72125129 32.21743721 6.70898438 33.91992188 C6.6760825 38.0719322 6.62438951 42.2233247 6.5625 46.375 C1.6125 46.375 -3.3375 46.375 -8.4375 46.375 C-8.49357422 43.32185547 -8.49357422 43.32185547 -8.55078125 40.20703125 C-8.59947494 38.22450244 -8.64827194 36.24197472 -8.69995117 34.25952148 C-8.73309806 32.88724042 -8.76116171 31.51482638 -8.78393555 30.14233398 C-8.81766766 28.16362234 -8.8715149 26.18528624 -8.92578125 24.20703125 C-8.95196533 23.01827393 -8.97814941 21.8295166 -9.00512695 20.60473633 C-9.47577796 17.08907164 -10.2632574 15.15990263 -12.4375 12.375 C-17.41367563 10.81384686 -20.97998035 11.44503046 -25.640625 13.4140625 C-28.80607101 15.10688797 -30.84333251 17.18666503 -32.4375 20.375 C-32.59128852 22.33274069 -32.68721463 24.29517352 -32.75390625 26.2578125 C-32.79580078 27.42441406 -32.83769531 28.59101562 -32.88085938 29.79296875 C-32.93983398 31.62794922 -32.93983398 31.62794922 -33 33.5 C-33.04318359 34.73105469 -33.08636719 35.96210937 -33.13085938 37.23046875 C-33.23718623 40.27850512 -33.33786972 43.32673739 -33.4375 46.375 C-38.3875 46.375 -43.3375 46.375 -48.4375 46.375 C-48.4375 30.205 -48.4375 14.035 -48.4375 -2.625 C-43.4875 -2.625 -38.5375 -2.625 -33.4375 -2.625 C-33.1075 -0.645 -32.7775 1.335 -32.4375 3.375 C-31.32375 2.4778125 -31.32375 2.4778125 -30.1875 1.5625 C-21.43297007 -4.21879335 -8.92036663 -6.06064982 0 0 Z " fill="#2E3A3C" transform="translate(473.4375,27.625)"/>
<path d="M0 0 C5.88015265 6.5667573 6.95195616 12.82030043 6.70703125 21.36328125 C5.9942837 28.11390168 3.5971691 32.73964022 -1.2578125 37.45703125 C-7.3036205 42.29143431 -14.5720852 44.2246161 -22.26953125 43.9375 C-28.86073173 42.94609629 -36.05783652 40.56068158 -40.6328125 35.58203125 C-45.46516737 28.23685184 -47.95653327 21.32207736 -46.20703125 12.4140625 C-44.27279423 5.51963482 -40.59742101 -0.03230867 -34.38671875 -3.76953125 C-22.8353936 -9.18482365 -9.93865662 -8.63093864 0 0 Z M-27.6328125 8.58203125 C-31.3035041 12.49455665 -31.07289345 15.80086256 -30.921875 20.94921875 C-30.56379813 24.21062162 -29.83966047 26.13873528 -27.6328125 28.58203125 C-24.66233636 30.89240158 -21.38108527 31.05594111 -17.66796875 30.97265625 C-13.97489297 30.26381253 -12.19637268 28.27064314 -9.6328125 25.58203125 C-7.95308191 20.54283947 -8.07541702 16.22325127 -9.7578125 11.26953125 C-12.04177607 7.99585014 -13.91093182 6.94925272 -17.6328125 5.58203125 C-22.04789897 5.58203125 -23.89017898 6.35237724 -27.6328125 8.58203125 Z " fill="#2E3A3C" transform="translate(265.6328125,31.41796875)"/>
<path d="M0 0 C7.48490248 7.65123365 8 14.27878199 8 25 C-3.22 25 -14.44 25 -26 25 C-22.50149066 31.03410142 -22.50149066 31.03410142 -17 33 C-12.85930399 32.9831679 -9.80778965 32.4956891 -6.25 30.3125 C-5.5075 29.879375 -4.765 29.44625 -4 29 C-2 29.5625 -2 29.5625 0 31 C1.36125 31.9590625 1.36125 31.9590625 2.75 32.9375 C3.4925 33.618125 4.235 34.29875 5 35 C5 35.99 5 36.98 5 38 C-1.81503328 44.07326095 -9.43383071 46.48816825 -18.453125 46.2421875 C-26.67087069 45.46074542 -32.47751408 42.09422564 -38 36 C-42.13824343 29.32541382 -43.00847093 22.13764323 -41.50390625 14.47265625 C-39.78334263 8.0083918 -37.58217892 3.2044178 -31.6640625 -0.4375 C-21.56671202 -5.77423779 -9.68449839 -7.23220051 0 0 Z M-25 11 C-25.66 12.65 -26.32 14.3 -27 16 C-20.07 16 -13.14 16 -6 16 C-8.16786745 9.45873926 -8.16786745 9.45873926 -10.75 7.5625 C-16.76256228 6.05935943 -20.66116123 6.41322759 -25 11 Z " fill="#2E3A3C" transform="translate(208,29)"/>
<path d="M0 0 C11.85774897 -1.20044703 11.85774897 -1.20044703 17 0 C20.46260872 2.85277614 22.10216978 5.99419919 24 10 C24.66 10.66 25.32 11.32 26 12 C26.391875 11.13375 26.78375 10.2675 27.1875 9.375 C29.18464354 5.656181 30.91300701 2.90041649 34 0 C39.18902696 -1.51303291 44.72441433 -0.69146026 50 0 C48.09507719 5.57325987 44.75781632 10.23250646 41.54492188 15.1171875 C41.10599609 15.80039062 40.66707031 16.48359375 40.21484375 17.1875 C39.61337524 18.10595703 39.61337524 18.10595703 38.99975586 19.04296875 C37.76413146 21.46171483 37.18632534 23.27815317 37 26 C38.13298995 28.56076949 38.13298995 28.56076949 39.96484375 31.01171875 C40.91713867 32.39520508 40.91713867 32.39520508 41.88867188 33.80664062 C42.56478516 34.75732422 43.24089844 35.70800781 43.9375 36.6875 C45.26283413 38.58464655 46.58464258 40.48426265 47.90234375 42.38671875 C48.79167603 43.64295044 48.79167603 43.64295044 49.69897461 44.92456055 C51 47 51 47 51 49 C39.21157299 50.56732496 39.21157299 50.56732496 34 49 C29.91558855 45.72319093 27.92259047 40.74456224 26 36 C22.99921019 38.74286029 21.47284891 41.0816479 19.8125 44.75 C18.32421875 47.13671875 18.32421875 47.13671875 16 49 C10.43978097 50.17433846 4.61029022 49.50605068 -1 49 C0.62741711 45.50313964 2.66440738 42.38704905 4.8125 39.1875 C5.51890625 38.12789062 6.2253125 37.06828125 6.953125 35.9765625 C8.58852875 33.59836087 10.28339325 31.33136086 12.0625 29.0625 C14.26899695 26.2593728 14.26899695 26.2593728 13.7890625 23.57861328 C12.95945373 20.86749701 11.92328362 19.00443721 10.3125 16.6796875 C9.77882813 15.89722656 9.24515625 15.11476563 8.6953125 14.30859375 C8.13585937 13.50550781 7.57640625 12.70242187 7 11.875 C5.89279651 10.27032029 4.78849678 8.66363207 3.6875 7.0546875 C3.19636719 6.34812012 2.70523437 5.64155273 2.19921875 4.91357422 C1 3 1 3 0 0 Z " fill="#2E3A3C" transform="translate(275,25)"/>
<path d="M0 0 C1.92391898 1.41444915 3.78738558 2.86508393 5.6171875 4.3984375 C5.0366554 7.69962544 4.06850651 9.30977826 1.67578125 11.6328125 C1.09248047 12.20644531 0.50917969 12.78007812 -0.09179688 13.37109375 C-0.70345703 13.95761719 -1.31511719 14.54414063 -1.9453125 15.1484375 C-2.56083984 15.75042969 -3.17636719 16.35242188 -3.81054688 16.97265625 C-5.32796063 18.45478131 -6.85451846 19.9275342 -8.3828125 21.3984375 C-8.91463135 21.01421631 -9.4464502 20.62999512 -9.99438477 20.23413086 C-15.04934576 16.6587344 -18.21545602 15.51738657 -24.3828125 16.3984375 C-26.86622301 17.5557068 -29.05266302 18.93638292 -31.3828125 20.3984375 C-34.3828125 20.3984375 -34.3828125 20.3984375 -35.91674805 19.20507812 C-36.4456665 18.66044922 -36.97458496 18.11582031 -37.51953125 17.5546875 C-38.09638672 16.96816406 -38.67324219 16.38164062 -39.26757812 15.77734375 C-39.86248047 15.15730469 -40.45738281 14.53726562 -41.0703125 13.8984375 C-41.67681641 13.27839844 -42.28332031 12.65835937 -42.90820312 12.01953125 C-44.40654993 10.48579043 -45.89557743 8.94295552 -47.3828125 7.3984375 C-44.97682339 2.21697285 -41.23596877 0.21563553 -36.3828125 -2.6015625 C-35.78597656 -2.94832031 -35.18914063 -3.29507812 -34.57421875 -3.65234375 C-23.78504519 -8.72253444 -9.5583867 -6.42448942 0 0 Z " fill="#00AEEE" transform="translate(58.3828125,6.6015625)"/>
<path d="M0 0 C5.66129431 4.69766975 10.85228904 9.74723372 16 15 C15.51660156 16.10408203 15.51660156 16.10408203 15.0234375 17.23046875 C14.07506108 19.79687669 13.67448281 21.60579054 13.625 24.3125 C13.58246094 25.35857422 13.58246094 25.35857422 13.5390625 26.42578125 C14.06782421 30.07752882 14.06782421 30.07752882 18 37 C13.05 41.95 8.1 46.9 3 52 C-2.03412566 50.32195811 -3.63232104 45.52834774 -6 41 C-10.04560405 32.66905239 -10.43714383 23.27523034 -8.015625 14.38671875 C-5.98604526 8.85548753 -3.85764792 4.4923464 0 0 Z " fill="#F69C2B" transform="translate(10,13)"/>
<path d="M0 0 C4.95 0 9.9 0 15 0 C15 16.17 15 32.34 15 49 C10.05 49 5.1 49 0 49 C0 32.83 0 16.66 0 0 Z " fill="#2E3A3C" transform="translate(398,25)"/>
<path d="M0 0 C3.4375 0.5625 3.4375 0.5625 5.875 2.0625 C8.07849302 5.58808884 8.23419284 8.51264472 7.4375 12.5625 C5.9375 15.0625 5.9375 15.0625 3.4375 16.5625 C0.62832139 17.16693392 -1.76007073 17.22290854 -4.5625 16.5625 C-7.55347304 14.02017292 -8.40452557 12.4050303 -9.125 8.5625 C-8.10942024 3.14607461 -5.36154281 0.84655939 0 0 Z " fill="#2E3A3C" transform="translate(405.5625,3.4375)"/>
<path d="M0 0 C2.8125 0.875 2.8125 0.875 4.8125 2.875 C5.35837156 8.87958716 5.35837156 8.87958716 3.75 11.8125 C0.65756242 13.50835287 -1.74264741 13.30560657 -5.1875 12.875 C-7.56216282 10.80674529 -8.07435647 9.44071765 -8.6875 6.375 C-8.1875 3.875 -8.1875 3.875 -6.0625 1.5 C-3.1875 -0.125 -3.1875 -0.125 0 0 Z M-5.1875 4.875 C-4.1875 8.875 -4.1875 8.875 -4.1875 8.875 Z M1.8125 5.875 C2.8125 7.875 2.8125 7.875 2.8125 7.875 Z " fill="#2E3A3C" transform="translate(494.1875,25.125)"/>
</svg>
