<?xml version="1.0" encoding="UTF-8"?>
<svg version="1.1" xmlns="http://www.w3.org/2000/svg" width="1714" height="474">
<path d="M0 0 C1.4296213 0.94079105 2.85760702 1.88406779 4.28491211 2.82836914 C5.08029892 3.35338516 5.87568573 3.87840118 6.69517517 4.41932678 C9.82844017 6.56815302 12.70032396 8.94494123 15.5625 11.4375 C16.39744995 12.15462158 16.39744995 12.15462158 17.24926758 12.88623047 C18.83724845 14.25249848 20.41936998 15.62524151 22 17 C22.74507812 17.64324219 23.49015625 18.28648438 24.2578125 18.94921875 C26.18274903 20.62087416 28.09220283 22.30882522 30 24 C30.81210938 24.70769531 31.62421875 25.41539063 32.4609375 26.14453125 C37.0437466 30.18373387 41.31585113 34.26341446 45.24609375 38.94140625 C46.45158939 40.35631984 47.69671984 41.73810914 48.97265625 43.08984375 C54.78865627 49.26472581 59.68791102 55.91611001 64.57080078 62.84326172 C65.36719971 63.97078857 65.36719971 63.97078857 66.1796875 65.12109375 C66.65132324 65.7958374 67.12295898 66.47058105 67.60888672 67.16577148 C70.15961643 70.52899232 72.27046349 72.3271895 76.21875 73.875 C77.47933228 74.3843811 77.47933228 74.3843811 78.76538086 74.90405273 C79.66780518 75.26571533 80.57022949 75.62737793 81.5 76 C132.18664874 97.06077693 171.1311208 138.96233588 192.125 189.25 C200.16759186 210.0995452 206.07786629 232.55816342 206.203125 255.01171875 C206.21018463 255.85383408 206.21724426 256.6959494 206.22451782 257.56358337 C206.45175973 292.63572882 206.45175973 292.63572882 203 308 C202.81195801 308.88075195 202.62391602 309.76150391 202.43017578 310.66894531 C190.57536845 364.89737983 157.48050656 411.89915535 111 442 C105.79657582 445.24960926 100.44528041 448.17859798 95 451 C94.29214355 451.3722168 93.58428711 451.74443359 92.85498047 452.12792969 C44.53884629 477.25531846 -12.70497094 480.31080898 -64.42504883 464.5546875 C-117.37748654 447.59832748 -160.92434186 409.45796642 -186.48144531 360.31982422 C-210.97441885 311.46320641 -215.06817236 253.0421943 -198.07275391 201.16992188 C-193.98212636 189.32063333 -188.93811129 178.02918582 -183 167 C-182.38640625 165.83339844 -181.7728125 164.66679687 -181.140625 163.46484375 C-168.68951 140.64637472 -150.40919339 119.94909303 -130 104 C-129.09894531 103.28199219 -128.19789063 102.56398438 -127.26953125 101.82421875 C-112.11488996 90.05585593 -94.98667189 80.0959837 -77.032938 73.24992657 C-71.02043084 70.84170656 -67.03687393 67.7340633 -62.55249023 63.12011719 C-61.52639397 62.09511612 -61.52639397 62.09511612 -60.47956848 61.04940796 C-58.24383623 58.81022002 -56.02629536 56.55390952 -53.80859375 54.296875 C-52.25313698 52.73208303 -50.69656531 51.1683986 -49.13893127 49.60577393 C-45.05899597 45.50682503 -40.99430567 41.39308102 -36.93267822 37.27600098 C-32.77872924 33.07073857 -28.61044021 28.87974294 -24.44335938 24.6875 C-16.28152856 16.47218094 -8.13574267 8.24114961 0 0 Z M-73.30078125 78.65234375 C-74.10491455 79.01183105 -74.90904785 79.37131836 -75.73754883 79.74169922 C-77.01214966 80.33362061 -77.01214966 80.33362061 -78.3125 80.9375 C-79.19897217 81.34500488 -80.08544434 81.75250977 -80.9987793 82.17236328 C-126.5156616 103.40894476 -162.62445217 140.80912647 -180.2512207 188.05883789 C-183.43182358 196.90279951 -186.01596636 205.81423185 -188 215 C-188.16371094 215.74411133 -188.32742187 216.48822266 -188.49609375 217.25488281 C-193.17187798 239.5421436 -192.92097259 264.78709226 -188 287 C-187.80132324 287.91007813 -187.60264648 288.82015625 -187.39794922 289.7578125 C-181.53106679 315.84456462 -170.60987589 340.91700732 -154 362 C-153.5870166 362.52722656 -153.1740332 363.05445313 -152.74853516 363.59765625 C-129.74782782 392.613659 -96.61191701 418.84702075 -60 428 C-60 359.36 -60 290.72 -60 220 C-57.03 219.01 -54.06 218.02 -51 217 C-48.05279815 215.77398551 -45.13735621 214.52428704 -42.2265625 213.21875 C-41.40153229 212.85281235 -40.57650208 212.48687469 -39.72647095 212.10984802 C-37.02428859 210.91033249 -34.32468143 209.70513223 -31.625 208.5 C-29.72122555 207.65393505 -27.81725062 206.80832109 -25.91308594 205.96313477 C-21.94484279 204.20132669 -17.97747415 202.43757105 -14.01074219 200.67236328 C-5.33348716 196.81246876 3.35286095 192.97316567 12.03985596 189.13525391 C14.64987833 187.98174898 17.25932695 186.82695552 19.86865234 185.671875 C32.55670131 180.06087986 45.27644055 174.53198237 58 169 C58.33 254.47 58.66 339.94 59 428 C72.79036222 423.2721412 72.79036222 423.2721412 85.9375 417.375 C86.7617749 416.95677979 87.5860498 416.53855957 88.43530273 416.10766602 C101.59012018 409.26334249 113.8776969 400.8038538 125 391 C125.97195313 390.14921875 126.94390625 389.2984375 127.9453125 388.421875 C164.97849049 355.52263315 187.01445134 309.41705026 190 260 C191.89575863 220.53606029 180.81544573 180.34543722 158 148 C156.92298828 146.46666016 156.92298828 146.46666016 155.82421875 144.90234375 C150.40386214 137.44092923 144.36883836 130.64981653 138 124 C137.47277344 123.44022461 136.94554687 122.88044922 136.40234375 122.30371094 C120.30052436 105.25976382 101.89974911 93.15163568 80.875 83 C79.87847412 82.51845459 78.88194824 82.03690918 77.85522461 81.54077148 C76.91042236 81.09419189 75.96562012 80.6476123 74.9921875 80.1875 C74.15026855 79.78917969 73.30834961 79.39085938 72.44091797 78.98046875 C69.91454948 77.96567621 67.71190027 77.27259661 65 77 C62.20386138 79.02568443 62.20386138 79.02568443 59.625 81.9375 C58.73039063 82.87464844 57.83578125 83.81179687 56.9140625 84.77734375 C55.44394873 86.37933977 54.00383845 87.99546742 52.59863281 89.65478516 C45.74660082 97.72250024 38.05091051 105.00698327 30.53369141 112.44580078 C21.18573194 121.65192277 21.18573194 121.65192277 12.39208984 131.38085938 C10.23831122 133.88592073 7.91447508 136.18024375 5.5625 138.5 C4.69753906 139.3559375 3.83257812 140.211875 2.94140625 141.09375 C2.30074219 141.7228125 1.66007813 142.351875 1 143 C-2.36018318 139.86892021 -4.91807338 136.39399526 -7.5 132.625 C-19.6060933 115.39353436 -34.34864034 99.88834053 -51 87 C-52.13167602 86.0799273 -53.26180771 85.15795278 -54.390625 84.234375 C-55.55147978 83.30133192 -56.71292876 82.36902759 -57.875 81.4375 C-58.4107666 80.99494873 -58.9465332 80.55239746 -59.49853516 80.09643555 C-64.33466055 76.28838513 -67.7875843 76.16887097 -73.30078125 78.65234375 Z " fill="#D60040" transform="translate(208,0)"/>
<path d="M0 0 C22.11 0 44.22 0 67 0 C67.495 11.385 67.495 11.385 68 23 C69.19625 21.845 70.3925 20.69 71.625 19.5 C86.65678946 6.14893031 106.1945158 -0.74384241 126.23242188 0.09326172 C145.24200433 1.36571666 161.51777575 6.46230493 174.9296875 20.62890625 C181 27.58113208 181 27.58113208 181 31 C182.01707031 30.1646875 182.01707031 30.1646875 183.0546875 29.3125 C185.01693431 27.70356632 186.98340333 26.09977395 188.953125 24.5 C190.77607698 23.00424453 192.58402724 21.48945963 194.359375 19.9375 C210.82174715 5.85933347 231.08939005 -1.10836154 252.71484375 0.25390625 C271.33096652 1.74379054 288.00408641 6.9155398 301 21 C311.57671038 34.73116786 317.13453929 52.34199266 317.12025452 69.61228943 C317.12231651 71.54515053 317.12231651 71.54515053 317.12442017 73.51705933 C317.12088193 74.92730737 317.11724714 76.33755517 317.11352539 77.74780273 C317.11324304 79.24635313 317.11340218 80.74490366 317.1139679 82.24345398 C317.11425401 86.29664142 317.10838735 90.34979907 317.10139394 94.40297961 C317.09512942 98.64438903 317.09455415 102.88579919 317.09336853 107.12721252 C317.09026434 115.15224416 317.08206326 123.17726211 317.07201904 131.20228773 C317.05873602 142.05123418 317.05335063 152.90018439 317.04751682 163.74913692 C317.03812275 180.83276819 317.01819774 197.9163706 317 215 C294.56 215 272.12 215 249 215 C248.96261719 205.69425781 248.92523437 196.38851562 248.88671875 186.80078125 C248.85642719 180.88995932 248.8253917 174.97915663 248.79101562 169.06835938 C248.73664268 159.69557482 248.68522504 150.32284365 248.65356445 140.94995117 C248.63048651 134.12203862 248.59698057 127.29426762 248.55129844 120.46646756 C248.52749727 116.85600973 248.50868319 113.24569094 248.50238609 109.63515663 C248.4951351 105.59031088 248.46458772 101.54594479 248.43237305 97.5012207 C248.43380814 96.32301254 248.43524323 95.14480438 248.4367218 93.93089294 C248.30701843 82.34353752 246.93035419 70.958004 239 62 C233.37612315 57.2319305 226.72742672 55.52883122 219.3984375 55.74609375 C210.60727389 56.67675439 202.71116578 58.69954216 195 63 C194.34 63 193.68 63 193 63 C193 113.16 193 163.32 193 215 C170.56 215 148.12 215 125 215 C124.95101562 206.22277344 124.90203125 197.44554687 124.8515625 188.40234375 C124.81164015 182.1088086 124.77051658 175.81529021 124.72766876 169.52177525 C124.67242751 161.38457497 124.61995029 153.24738891 124.578125 145.11010742 C124.54498221 138.66381819 124.50503171 132.2176115 124.45720994 125.77141386 C124.43216408 122.36436202 124.41032087 118.95736336 124.39665604 115.55024529 C125.57275807 87.95192976 125.57275807 87.95192976 115.6875 63.125 C108.36141852 57.33228441 101.39148569 55.15737078 92 56 C83.18999736 57.43261247 77.24449492 59.87775254 69 64 C68.67 113.83 68.34 163.66 68 215 C45.56 215 23.12 215 0 215 C0 144.05 0 73.1 0 0 Z " fill="#088F8F" transform="translate(664,136)"/>
<path d="M0 0 C0.33 68.64 0.66 137.28 1 208 C5.62 203.71 10.24 199.42 15 195 C19.1875 191.3125 19.1875 191.3125 21.01171875 189.73828125 C23.54052928 187.52743511 26.01872564 185.26403557 28.5 183 C31.61907011 180.15475772 34.74755391 177.3280042 37.9375 174.5625 C41.3468858 171.6011649 44.6779431 168.55847514 48 165.5 C51.95456357 161.8595926 55.94253663 158.26707324 60.00390625 154.74609375 C62.37955778 152.66797979 64.72082561 150.55381024 67.0625 148.4375 C67.91328125 147.68597656 68.7640625 146.93445313 69.640625 146.16015625 C71.9648165 144.10460414 71.9648165 144.10460414 73.734375 142.05859375 C75.45242463 140.22572397 76.75125715 139.13476162 79 138 C81.74888611 137.9230957 81.74888611 137.9230957 84.92163086 138.23828125 C86.65967484 138.4084375 86.65967484 138.4084375 88.43283081 138.58203125 C93.95213817 139.22873396 99.44702543 139.98105543 104.94140625 140.8125 C106.11211166 140.98628174 107.28281708 141.16006348 108.48899841 141.33911133 C110.93707807 141.70341809 113.3848357 142.06989503 115.83227539 142.43847656 C119.58340403 143.00314676 123.33553958 143.56070409 127.08789062 144.1171875 C129.47662393 144.47354678 131.86529803 144.83030327 134.25390625 145.1875 C135.9335421 145.43753784 135.9335421 145.43753784 137.64710999 145.69262695 C138.68596848 145.84948975 139.72482697 146.00635254 140.79516602 146.16796875 C141.70637711 146.30485107 142.6175882 146.4417334 143.55641174 146.58276367 C145.74277461 146.95607943 147.85841863 147.42710606 150 148 C148.42775175 152.04427713 145.54829891 154.50576342 142.375 157.3125 C141.83375488 157.79960449 141.29250977 158.28670898 140.73486328 158.78857422 C137.17983053 161.97974763 133.59248256 165.13462257 129.984375 168.265625 C125.94625309 171.79500714 121.98085319 175.40634226 118 179 C116.33359149 180.50028679 114.66692647 182.00028872 113 183.5 C112.175 184.2425 111.35 184.985 110.5 185.75 C96.33333333 198.5 82.16666667 211.25 68 224 C70.25369823 228.04034716 72.97247681 231.46527097 76 234.9375 C81.41957447 241.24931596 86.59164306 247.72695618 91.68554688 254.30322266 C92.92762964 255.90657987 94.1746034 257.50614468 95.421875 259.10546875 C112.38429932 280.97369226 128.21112936 303.62180309 143.47265625 326.70166016 C144.85525519 328.78218868 146.25095673 330.85272814 147.65625 332.91796875 C148.3884375 333.99691406 149.120625 335.07585937 149.875 336.1875 C150.49117187 337.08855469 151.10734375 337.98960937 151.7421875 338.91796875 C153 341 153 341 153 343 C143.94407291 344.72218943 134.88648684 346.43528485 125.82664871 348.13678074 C121.61989935 348.92713119 117.41378981 349.72060675 113.20898438 350.52124023 C109.15143818 351.29371499 105.0924207 352.05795936 101.03224945 352.81651115 C99.48314881 353.10742263 97.93460218 353.4013003 96.38663483 353.69818306 C94.21910752 354.1133668 92.04985376 354.5179796 89.87988281 354.92016602 C88.64522278 355.15333023 87.41056274 355.38649445 86.13848877 355.62672424 C83.3020507 355.96407564 81.62288226 356.04594165 79 355 C77.75830078 353.56738281 77.75830078 353.56738281 76.6953125 351.703125 C76.07861694 350.65209595 76.07861694 350.65209595 75.44946289 349.57983398 C75.01239014 348.81098877 74.57531738 348.04214355 74.125 347.25 C73.15088156 345.59804567 72.1728458 343.94839657 71.19140625 342.30078125 C70.67465332 341.43275879 70.15790039 340.56473633 69.62548828 339.67041016 C57.84922631 320.32394674 44.41555844 301.90288846 30.55615234 284.01025391 C28.54275365 281.40932438 26.5391851 278.80090866 24.53564453 276.19238281 C22.69258077 273.79326251 20.84639246 271.39655907 19 269 C15.40021813 270.24915508 13.14578273 271.51858991 10.5625 274.3125 C8.36844968 276.66515637 6.80802621 278.10386943 3.92895508 279.66162109 C1.47201461 281.72028118 1.0229023 282.87575497 0.43244934 286.07896423 C0.20644121 290.18416586 0.16801267 294.25364952 0.1953125 298.36328125 C0.18405797 299.8807333 0.17017539 301.39816793 0.15377808 302.91557312 C0.117767 306.89910943 0.11736285 310.88187786 0.12445068 314.86553955 C0.12552489 319.65065223 0.08223984 324.43554575 0.04641724 329.22049713 C-0.00298345 336.48072921 0.00385918 343.73895782 0 351 C-22.11 351 -44.22 351 -67 351 C-67 245.4 -67 139.8 -67 31 C-48.60870135 21.80435067 -48.60870135 21.80435067 -41.29296875 18.45703125 C-40.47605057 18.08068039 -39.65913239 17.70432953 -38.81745911 17.3165741 C-36.27525219 16.14611136 -33.73141556 14.9792436 -31.1875 13.8125 C-29.47450168 13.02432255 -27.76161065 12.2359119 -26.04882812 11.44726562 C-22.06121671 9.6120622 -18.07151121 7.78148285 -14.08050537 5.95367432 C-12.18244983 5.08363243 -10.28573277 4.21067209 -8.38916016 3.33740234 C-7.39062012 2.87930176 -6.39208008 2.42120117 -5.36328125 1.94921875 C-4.10898315 1.37240356 -4.10898315 1.37240356 -2.8293457 0.78393555 C-1 0 -1 0 0 0 Z " fill="#088F8F" transform="translate(1105,0)"/>
<path d="M0 0 C22.11 0 44.22 0 67 0 C67.33 7.26 67.66 14.52 68 22 C70.6915625 19.7725 70.6915625 19.7725 73.4375 17.5 C92.16021652 2.72899444 114.12301383 -1.5594318 137.50341797 0.89428711 C155.57829721 3.1410878 171.16012206 10.16917399 183.0078125 24.4140625 C195.93148619 42.0372539 198.17271956 63.07280112 198.11352539 84.33227539 C198.11324284 85.76215615 198.11340257 87.19203705 198.1139679 88.62191772 C198.11425324 92.47871269 198.10839917 96.33547616 198.10139394 100.19226384 C198.09511647 104.23213237 198.09455314 108.27200173 198.09336853 112.31187439 C198.09026812 119.95080573 198.08207221 127.58972264 198.07201904 135.22864765 C198.05872073 145.55900351 198.05334757 155.88936334 198.04751682 166.21972561 C198.03813139 182.47982786 198.01820387 198.73989969 198 215 C175.56 215 153.12 215 130 215 C129.94392578 201.38363281 129.94392578 201.38363281 129.88671875 187.4921875 C129.85642341 181.7226413 129.82538511 175.95311474 129.79101562 170.18359375 C129.73666543 161.03696526 129.68524699 151.89039121 129.65356445 142.74365234 C129.63046942 136.08016742 129.59694503 129.41682713 129.55129844 122.75345719 C129.52751991 119.23071655 129.50869122 115.70811776 129.50238609 112.18529892 C129.49512193 108.23649313 129.46455503 104.28804018 129.43237305 100.33935547 C129.43380814 99.1927948 129.43524323 98.04623413 129.4367218 96.8649292 C129.3005002 84.95456621 128.10880039 72.48294778 119.58984375 63.515625 C112.80974412 57.36833467 104.55638694 55.65049328 95.68359375 55.78515625 C85.5599592 56.59563645 78.18699196 59.40650402 69 64 C68.67 113.83 68.34 163.66 68 215 C45.56 215 23.12 215 0 215 C0 144.05 0 73.1 0 0 Z " fill="#088F8F" transform="translate(1516,136)"/>
<path d="M0 0 C0 85.8 0 171.6 0 260 C-5.41749702 262.03156138 -10.48153182 263.76967324 -16.0625 265.0625 C-16.71154297 265.22298828 -17.36058594 265.38347656 -18.02929688 265.54882812 C-31.15738325 268.63560198 -44.18235884 269.34918694 -57.60498047 269.31567383 C-60.23317274 269.31252019 -62.86022741 269.33605366 -65.48828125 269.36132812 C-84.33227232 269.43691034 -100.46791952 265.87686328 -119 261 C-119 192.03 -119 123.06 -119 52 C-78.30915179 33.91517857 -78.30915179 33.91517857 -64.81384277 28.01220703 C-48.90065371 21.05086893 -33.01559138 14.02798281 -17.15429688 6.94921875 C-16.43747742 6.62969238 -15.72065796 6.31016602 -14.9821167 5.98095703 C-13.65723842 5.39032547 -12.3327057 4.79891783 -11.00860596 4.20654297 C-1.56999786 0 -1.56999786 0 0 0 Z " fill="#088E8E" transform="translate(267,168)"/>
<path d="M0 0 C11.80073771 10.27358342 16.66121873 26.93639558 18 42 C18.1069436 45.49818733 18.06636738 48.98989644 18.01831055 52.48901367 C17.99864496 54.60401891 17.97900824 56.71902442 17.95939636 58.83403015 C17.94716726 59.94649298 17.93493816 61.0589558 17.92233849 62.20512962 C17.86109111 68.15940729 17.83091754 74.11388526 17.79492188 80.06835938 C17.74722609 87.61669806 17.69080009 95.16466535 17.60229492 102.71264648 C17.53130807 108.8362599 17.49089749 114.95944953 17.46967506 121.08342934 C17.45623927 123.39672066 17.43207892 125.70997938 17.39618492 128.02303123 C17.17746059 142.52801378 18.53017614 155.0588066 23.25414467 168.81783485 C24.37083279 172.08495355 25.36581847 175.38574118 26.375 178.6875 C26.69210937 179.68136719 27.00921875 180.67523438 27.3359375 181.69921875 C28 184 28 184 28 186 C6.70345047 190.53553281 -14.59225275 195.01498272 -36 199 C-36.84080019 196.58570231 -37.67281402 194.16896007 -38.5 191.75 C-38.85771484 190.72712891 -38.85771484 190.72712891 -39.22265625 189.68359375 C-40.39421287 186.23586997 -41 183.68297096 -41 180 C-42.12792969 180.64066406 -43.25585938 181.28132812 -44.41796875 181.94140625 C-59.78432228 190.46542089 -76.26358313 197.67528837 -94 199 C-95.32064453 199.10441406 -95.32064453 199.10441406 -96.66796875 199.2109375 C-111.97907225 199.79895625 -126.52356917 195.72229298 -138.3125 185.8125 C-148.54970853 175.98609438 -154.87434106 162.54528368 -155.23828125 148.26171875 C-155.65009892 127.65970508 -151.95025563 111.02459978 -138.63671875 94.66796875 C-137.33154297 93.34732422 -137.33154297 93.34732422 -136 92 C-135.47226486 91.43694153 -134.94452972 90.87388306 -134.40080261 90.29376221 C-127.08505289 83.51216962 -118.61568514 83.35784176 -109.1640625 82.56640625 C-107.43508063 82.3996477 -105.70635185 82.23024604 -103.97787476 82.05833435 C-99.45380526 81.61565526 -94.92718353 81.2094633 -90.39904785 80.81085205 C-85.78077122 80.39739182 -81.16602823 79.9477432 -76.55078125 79.50195312 C-69.82144656 78.85748382 -63.09117124 78.22546254 -56.35791016 77.62329102 C-55.3012616 77.52757812 -55.3012616 77.52757812 -54.2232666 77.42993164 C-51.46881046 77.18658643 -48.76706739 77 -46 77 C-46.40993719 67.18977905 -46.79164293 58.09562594 -52.125 49.625 C-60.56531058 41.91862947 -71.08595021 41.44585545 -82.01123047 41.86816406 C-96.15627681 42.80584207 -109.83522041 48.74583779 -121.828125 55.99609375 C-124 57 -124 57 -127 56 C-127.96818542 54.23625183 -127.96818542 54.23625183 -128.80932617 51.91088867 C-129.12943161 51.04296188 -129.44953705 50.1750351 -129.77934265 49.2808075 C-130.11383926 48.33607071 -130.44833588 47.39133392 -130.79296875 46.41796875 C-131.14386063 45.45224442 -131.4947525 44.48652008 -131.85627747 43.49153137 C-132.59714078 41.44483646 -133.33231096 39.39607327 -134.06225586 37.34545898 C-135.18080052 34.20630185 -136.31833381 31.07454252 -137.45898438 27.94335938 C-138.17561815 25.95613954 -138.89114962 23.96852177 -139.60546875 21.98046875 C-139.94603806 21.04180466 -140.28660736 20.10314056 -140.63749695 19.1360321 C-140.9481459 18.25864883 -141.25879486 17.38126556 -141.57885742 16.47729492 C-141.85404709 15.7075383 -142.12923676 14.93778168 -142.4127655 14.1446991 C-143 12 -143 12 -143 8 C-102.21274812 -12.87036005 -40.84258047 -31.25573682 0 0 Z M-62.23657227 115.02636719 C-63.94810933 115.2580111 -65.66002549 115.48687175 -67.37231445 115.71289062 C-69.83902429 116.03876789 -72.30432584 116.37389077 -74.76953125 116.7109375 C-75.53320511 116.80998383 -76.29687897 116.90903015 -77.08369446 117.01107788 C-82.32517247 117.70535255 -82.32517247 117.70535255 -87 120 C-89.49337428 127.73346035 -88.95580188 136.94821759 -85.2734375 144.15625 C-82.45428799 148.2379634 -78.70991092 150.02399184 -74 151 C-64.52685801 151.76396306 -55.46413801 149.23206901 -47 145 C-46.67 134.44 -46.34 123.88 -46 113 C-51.33653811 113 -56.94681602 114.30639653 -62.23657227 115.02636719 Z " fill="#088F8F" transform="translate(1442,152)"/>
<path d="M0 0 C0 70.95 0 141.9 0 215 C-22.44 215 -44.88 215 -68 215 C-68 154.28 -68 93.56 -68 31 C-49.6389005 21.81945025 -49.6389005 21.81945025 -43.08984375 18.96484375 C-42.3490004 18.63762833 -41.60815704 18.3104129 -40.84486389 17.97328186 C-38.5440116 16.95766707 -36.24095214 15.94720228 -33.9375 14.9375 C-30.88314348 13.59464473 -27.82991259 12.24925745 -24.77734375 10.90234375 C-24.04276947 10.57873871 -23.30819519 10.25513367 -22.55136108 9.92172241 C-16.83100487 7.39211566 -11.15715672 4.77028748 -5.50828552 2.08494568 C-1.10180106 0 -1.10180106 0 0 0 Z " fill="#088F8F" transform="translate(608,136)"/>
<path d="M0 0 C8.21935435 3.55507715 15.39057722 11.78533716 21.88227844 17.81413269 C22.48684875 18.36456238 23.09141907 18.91499207 23.71430969 19.48210144 C30.2989514 25.7274876 35.85959045 33.28010071 40.88227844 40.81413269 C40.56160719 44.13976019 39.28069668 45.78193492 36.94233704 48.07878113 C36.32434235 48.69332153 35.70634766 49.30786194 35.06962585 49.94102478 C34.39678558 50.59524414 33.72394531 51.2494635 33.03071594 51.92350769 C31.99233078 52.95196808 31.99233078 52.95196808 30.93296814 54.00120544 C28.71471421 56.19605028 26.48659428 58.38052913 24.25727844 60.56413269 C22.05106859 62.73507797 19.84707142 64.9082012 17.64585876 67.08421326 C16.2767203 68.43661998 14.9044974 69.7859142 13.52861023 71.13145447 C9.0847436 75.50723282 4.92710296 80.06751425 0.88227844 84.81413269 C-3.06319664 83.02694078 -4.6762118 81.00559145 -7.18022156 77.43913269 C-17.19226511 63.66605047 -28.91311573 53.09762697 -43.11772156 43.81413269 C-42.54339495 40.07420879 -41.02444951 38.33272218 -38.39579773 35.67228699 C-37.60795395 34.86853134 -36.82011017 34.0647757 -36.00839233 33.23666382 C-35.15115067 32.37922073 -34.293909 31.52177765 -33.41069031 30.63835144 C-32.53375015 29.75379776 -31.65681 28.86924408 -30.7532959 27.95788574 C-28.89668249 26.09046398 -27.03708699 24.22665895 -25.17216492 22.36759949 C-22.78093176 19.98227589 -20.40849007 17.57917253 -18.04049206 15.17080975 C-15.77946732 12.87776593 -13.50032438 10.60288125 -11.22319031 8.32585144 C-10.37202133 7.4582872 -9.52085236 6.59072296 -8.64389038 5.6968689 C-7.44793999 4.51487663 -7.44793999 4.51487663 -6.22782898 3.30900574 C-5.1797834 2.25787849 -5.1797834 2.25787849 -4.11056519 1.18551636 C-2.11772156 -0.18586731 -2.11772156 -0.18586731 0 0 Z " fill="#D70040" transform="translate(575.1177215576172,28.185867309570313)"/>
<path d="M0 0 C1.98 0 3.96 0 6 0 C6 156.42 6 312.84 6 474 C4.02 474 2.04 474 0 474 C0 317.58 0 161.16 0 0 Z " fill="#088F8F" transform="translate(470,0)"/>
<path d="M0 0 C1.11930908 0.05510742 1.11930908 0.05510742 2.26123047 0.11132812 C7.50965065 0.37453248 12.75494998 0.67687261 18 1 C18 2.98 18 4.96 18 7 C13.545 7.495 13.545 7.495 9 8 C9.350625 8.66 9.70125 9.32 10.0625 10 C11.27778425 13.88890961 11.16190788 17.14457839 10 21 C8.14827519 24.37013915 5.85168693 26.54299726 2.4375 28.375 C-2.70450779 29.30991051 -7.78941038 29.15176475 -13 29 C-13.495 31.475 -13.495 31.475 -14 34 C-8.22183201 35.4686177 -2.23190038 35.30942521 3.6953125 35.4296875 C8.55700602 35.60383772 12.09457821 35.78107813 16 39 C18.481386 42.72207899 18.27271843 44.427985 17.65234375 48.71484375 C16.5203623 52.68016799 14.43987521 54.81417298 11 57 C2.61073704 60.93386398 -7.11713716 61.32544492 -16 58.875 C-19.12749931 57.65811845 -20.20400424 56.78628127 -22.625 54.25 C-24.3368374 50.20383887 -24.22176733 48.19982519 -23 44 C-20.9375 41.0625 -20.9375 41.0625 -19 39 C-19.66 38.01 -20.32 37.02 -21 36 C-21.46531409 30.97460788 -20.97760844 28.09421161 -18 24 C-18.48597656 23.45085937 -18.97195313 22.90171875 -19.47265625 22.3359375 C-22.16340532 18.22067421 -21.6116162 13.74174355 -21 9 C-19.25800827 5.24801781 -17.74725276 3.54677031 -14.4375 1.125 C-9.51513998 -0.48595419 -5.13939984 -0.25726234 0 0 Z M-12 8.5625 C-14.29245027 11.8595558 -14.29245027 11.8595558 -14.0625 15.625 C-12.89806563 19.32379153 -12.2351133 20.87163599 -9 23 C-4.59231863 23.72125695 -2.74062512 23.52001338 0.9375 20.9375 C3.23534372 18.1039354 3.23534372 18.1039354 3.625 14.5 C2.82883761 10.04149064 1.69186542 8.59216083 -2 6 C-6.76538139 5.06394294 -8.28307506 5.38762662 -12 8.5625 Z M-17 46 C-17.40802691 48.62822118 -17.40802691 48.62822118 -16 51 C-10.6100169 54.32573425 -5.23836384 54.87453699 1 54 C4.00826481 53.08272581 6.55483634 51.99826691 9 50 C10.12815365 47.3852733 10.12815365 47.3852733 10 45 C5.41569142 41.5085165 1.46434271 41.51343199 -4.0625 41.5625 C-4.86494141 41.54251953 -5.66738281 41.52253906 -6.49414062 41.50195312 C-11.32016428 41.50595812 -14.08985402 41.7286567 -17 46 Z " fill="#D70040" transform="translate(1570,414)"/>
<path d="M0 0 C2.64 0 5.28 0 8 0 C8.33 7.59 8.66 15.18 9 23 C10.65 21.68 12.3 20.36 14 19 C19.44612634 17.18462455 25.61330308 17.10498865 31 19.125 C34.56747515 22.46950795 35.89611466 25.86820833 36.34057617 30.71044922 C36.34010776 32.07528749 36.32355011 33.4401918 36.29296875 34.8046875 C36.28872391 35.5286673 36.28447906 36.25264709 36.28010559 36.99856567 C36.26342972 39.29110287 36.22580081 41.58273246 36.1875 43.875 C36.17243871 45.43748722 36.15875284 46.99998835 36.14648438 48.5625 C36.11356293 52.37534505 36.06186002 56.18751911 36 60 C33.69 60 31.38 60 29 60 C28.98018066 59.24904053 28.96036133 58.49808105 28.93994141 57.72436523 C28.84420599 54.29508043 28.73472367 50.86636458 28.625 47.4375 C28.5940625 46.25607422 28.563125 45.07464844 28.53125 43.85742188 C28.26729774 35.2397792 28.26729774 35.2397792 26 27 C22.79757557 25.39878779 19.43899946 25.23830425 16 26 C12.8824997 27.0733211 10.94766495 28.3107528 9 31 C7.97145073 35.9183147 8.01890294 40.80958809 8.0625 45.8125 C8.04938288 47.18688274 8.03313891 48.56123941 8.01367188 49.93554688 C7.97834726 53.29138493 7.97493983 56.64415819 8 60 C5.36 60 2.72 60 0 60 C0 40.2 0 20.4 0 0 Z " fill="#D70040" transform="translate(912,396)"/>
<path d="M0 0 C5.20731203 2.70509716 7.98899922 6.86543516 9.8046875 12.3125 C9.8046875 15.9425 9.8046875 19.5725 9.8046875 23.3125 C-0.4253125 23.3125 -10.6553125 23.3125 -21.1953125 23.3125 C-18.14151518 30.92192088 -18.14151518 30.92192088 -14.5078125 33.3125 C-7.01856459 35.57340503 -1.24648477 34.38937517 5.8046875 31.3125 C6.7946875 33.2925 7.7846875 35.2725 8.8046875 37.3125 C0.63203212 42.00420957 -6.92848 43.49368026 -16.16015625 41.03515625 C-22.02544234 38.95247309 -25.14545338 35.62151402 -28.1953125 30.3125 C-30.30990338 23.96872737 -30.39894484 15.95098429 -27.5703125 9.8125 C-21.77361004 0.10353546 -10.70997641 -3.35401396 0 0 Z M-19.5703125 11.375 C-21.3566663 14.04467597 -21.3566663 14.04467597 -21.1953125 16.3125 C-13.2753125 16.3125 -5.3553125 16.3125 2.8046875 16.3125 C1.54443951 9.52842932 1.54443951 9.52842932 -1.9453125 6.875 C-8.98054463 3.49267686 -14.817675 5.24659902 -19.5703125 11.375 Z " fill="#D70040" transform="translate(685.1953125,414.6875)"/>
<path d="M0 0 C5.01177966 2.22427554 8.02407458 5.55817953 10.61328125 10.34765625 C12.66022126 16.48847628 12.87769736 24.82198146 10.671875 30.97265625 C9.46264409 32.97414189 8.20145338 34.63561555 6.61328125 36.34765625 C5.91203125 37.13140625 5.21078125 37.91515625 4.48828125 38.72265625 C-0.92499614 41.78233477 -7.40662605 43.01934782 -13.57421875 41.91015625 C-19.03604201 40.14574009 -23.54838262 36.31727615 -26.5546875 31.4609375 C-29.11177271 25.54242571 -29.43386516 19.07478753 -27.6953125 12.88671875 C-25.28451171 6.81432513 -22.14384651 3.61959462 -16.55859375 0.2421875 C-11.50548157 -1.83904036 -5.20264252 -1.42199886 0 0 Z M-15.38671875 8.34765625 C-19.28094991 12.45238639 -20.17231966 15.11790568 -20.69921875 20.59765625 C-20.31164615 25.2485274 -19.12245767 28.56689905 -16.38671875 32.34765625 C-13.01522596 34.87627584 -10.45209117 35.58864315 -6.32421875 35.34765625 C-2.11736076 34.62233591 -0.02908318 32.71066552 2.61328125 29.34765625 C4.62877651 23.30117046 4.60722874 16.61385652 2.05078125 10.78515625 C-0.99710071 7.73727429 -3.31129677 6.70613024 -7.38671875 5.34765625 C-10.58287939 5.34765625 -12.6523662 6.76173177 -15.38671875 8.34765625 Z " fill="#D70040" transform="translate(1446.38671875,414.65234375)"/>
<path d="M0 0 C5.02532542 3.70916876 8.69848427 7.93600401 10.625 13.9375 C11.52703645 22.5361332 10.556805 28.48924414 5.8125 35.6875 C1.58349162 40.03733719 -3.09076045 41.51529892 -9.00390625 42.00390625 C-15.20174429 41.83032594 -21.10856963 39.44772639 -25.375 34.9375 C-30.13037279 28.61785984 -30.42881173 21.58908948 -29.375 13.9375 C-27.78223911 8.87455368 -25.68040709 4.47628496 -21.25 1.375 C-14.59408953 -1.95295523 -7.09544153 -2.23375011 0 0 Z M-17.375 7.9375 C-21.17727895 12.71472228 -21.9767304 16.50877966 -21.69140625 22.57421875 C-21.02747941 27.53317852 -19.34433626 30.11894938 -15.5625 33.3125 C-12.00094235 35.12819606 -10.30352437 35.59225406 -6.375 34.9375 C-1.52150107 32.46316721 0.89743952 30.12018145 2.625 24.9375 C3.2825459 20.02620036 3.28007049 15.51160893 1.0625 11 C-1.94884728 7.21651239 -3.82481506 6.36996563 -8.375 4.9375 C-11.75384916 4.9375 -14.5589917 6.18141464 -17.375 7.9375 Z " fill="#D70040" transform="translate(1193.375,415.0625)"/>
<path d="M0 0 C2.64 0 5.28 0 8 0 C8.35304199 0.80219971 8.70608398 1.60439941 9.06982422 2.4309082 C10.38332971 5.41188754 11.69935477 8.39173781 13.01708984 11.37084961 C13.58645969 12.65946611 14.15482858 13.94852537 14.72216797 15.23803711 C15.53869911 17.0934647 16.35883877 18.94726046 17.1796875 20.80078125 C17.91807861 22.47394409 17.91807861 22.47394409 18.67138672 24.1809082 C19.96806566 27.11140205 19.96806566 27.11140205 22 30 C22.32798584 29.16227051 22.65597168 28.32454102 22.99389648 27.46142578 C24.21011149 24.35631526 25.42715907 21.2515338 26.64477539 18.14697266 C27.17180314 16.80270292 27.69849774 15.45830252 28.22485352 14.11376953 C28.98105929 12.18227316 29.73845814 10.25124838 30.49609375 8.3203125 C30.95169678 7.15773926 31.4072998 5.99516602 31.87670898 4.79736328 C33 2 33 2 34 0 C36.64 0 39.28 0 42 0 C39.16223506 8.79702245 35.7901764 17.33772307 32.32226562 25.90209961 C31.60779667 27.67476997 30.90009698 29.4501838 30.19921875 31.22827148 C21.63903671 52.93530614 21.63903671 52.93530614 13.125 57.5625 C8.94926235 58.14710327 5.14130326 57.68101431 1 57 C1.33 54.69 1.66 52.38 2 50 C3.216875 50.0825 4.43375 50.165 5.6875 50.25 C8.84685015 50.23322469 9.99689945 50.00168508 12.875 48.4375 C15.62916803 45.27830725 16.3082952 43.14396432 17 39 C16.25375281 35.96122262 14.90495775 33.31980389 13.4765625 30.546875 C13.09639984 29.76483704 12.71623718 28.98279907 12.32455444 28.17706299 C11.11156598 25.69082645 9.86983799 23.22042094 8.625 20.75 C7.3929854 18.26290656 6.16715965 15.77295621 4.9468689 13.28009033 C4.18703029 11.73245416 3.41938381 10.188622 2.64321899 8.64910889 C0 3.32981967 0 3.32981967 0 0 Z " fill="#D70040" transform="translate(1672,415)"/>
<path d="M0 0 C4.09180359 3.77704947 4.6727785 6.82317824 5.4375 12.25 C5.51556517 14.48585359 5.5454186 16.72374504 5.53515625 18.9609375 C5.53193359 20.20488281 5.52871094 21.44882812 5.52539062 22.73046875 C5.51282227 24.65826172 5.51282227 24.65826172 5.5 26.625 C5.49548828 27.93339844 5.49097656 29.24179687 5.48632812 30.58984375 C5.47457594 33.80994281 5.45814543 37.0299477 5.4375 40.25 C2.7975 40.25 0.1575 40.25 -2.5625 40.25 C-2.58231934 39.42798096 -2.60213867 38.60596191 -2.62255859 37.7590332 C-2.71794603 34.02653874 -2.82757089 30.2945933 -2.9375 26.5625 C-2.9684375 25.26892578 -2.999375 23.97535156 -3.03125 22.64257812 C-3.06992188 21.39541016 -3.10859375 20.14824219 -3.1484375 18.86328125 C-3.19556885 17.14298706 -3.19556885 17.14298706 -3.24365234 15.38793945 C-3.55987481 12.27583579 -4.14209924 10.02738513 -5.5625 7.25 C-8.76492443 5.64878779 -12.12350054 5.48830425 -15.5625 6.25 C-18.6800003 7.3233211 -20.61483505 8.5607528 -22.5625 11.25 C-23.59104927 16.1683147 -23.54359706 21.05958809 -23.5 26.0625 C-23.51311712 27.43688274 -23.52936109 28.81123941 -23.54882812 30.18554688 C-23.58415274 33.54138493 -23.58756017 36.89415819 -23.5625 40.25 C-26.2025 40.25 -28.8425 40.25 -31.5625 40.25 C-31.5625 26.72 -31.5625 13.19 -31.5625 -0.75 C-29.2525 -0.75 -26.9425 -0.75 -24.5625 -0.75 C-24.2325 0.9 -23.9025 2.55 -23.5625 4.25 C-22.634375 3.445625 -21.70625 2.64125 -20.75 1.8125 C-14.98131266 -3.18702902 -6.67679551 -3.27982937 0 0 Z " fill="#D70040" transform="translate(1070.5625,415.75)"/>
<path d="M0 0 C7.26 0 14.52 0 22 0 C22.02578125 3.49078125 22.0515625 6.9815625 22.078125 10.578125 C22.11653238 13.95727623 22.16169699 17.33627419 22.20751953 20.71533203 C22.23575288 23.06454152 22.25695558 25.41384641 22.27099609 27.76318359 C22.29239224 31.13949518 22.33902737 34.51465667 22.390625 37.890625 C22.39185364 38.94179504 22.39308228 39.99296509 22.39434814 41.07598877 C22.42450384 46.73938654 22.42450384 46.73938654 24.87695312 51.68359375 C27.62836905 53.3896235 29.08241013 53.25014577 32.25 52.75 C33.58804687 52.55664062 33.58804687 52.55664062 34.953125 52.359375 C35.62859375 52.24078125 36.3040625 52.1221875 37 52 C37.66 53.98 38.32 55.96 39 58 C32.90925763 60.54860851 27.47338439 62.06142726 21 60 C17.22064393 57.10517407 15.35359927 54.51536472 14 50 C13.7323826 46.69956082 13.76734355 43.41481662 13.8046875 40.10546875 C13.8075174 39.15811356 13.81034729 38.21075836 13.81326294 37.23469543 C13.82442813 34.21883334 13.84952611 31.20327184 13.875 28.1875 C13.88503453 26.13867617 13.89415955 24.08984768 13.90234375 22.04101562 C13.92435551 17.02722852 13.95886029 12.01366517 14 7 C9.38 7 4.76 7 0 7 C0 4.69 0 2.38 0 0 Z " fill="#D70040" transform="translate(1292,396)"/>
<path d="M0 0 C2.64 0 5.28 0 8 0 C8 4.29 8 8.58 8 13 C14.27 13 20.54 13 27 13 C27 14.98 27 16.96 27 19 C20.73 19 14.46 19 8 19 C8.11362874 22.93813307 8.24038724 26.87507674 8.375 30.8125 C8.4059375 31.93205078 8.436875 33.05160156 8.46875 34.20507812 C8.50742187 35.27822266 8.54609375 36.35136719 8.5859375 37.45703125 C8.6173584 38.44678955 8.6487793 39.43654785 8.68115234 40.45629883 C8.83773433 43.24075094 8.83773433 43.24075094 11 46 C16.24118425 47.74706142 21.68833136 47.32791716 27 46 C27.66 47.98 28.32 49.96 29 52 C23.10463574 54.94768213 16.14192866 55.64770537 9.6875 54.4375 C5.06418582 52.63519108 3.73884413 51.06676855 1 47 C0.06487566 44.19462697 -0.12182907 42.51834636 -0.11352539 39.62036133 C-0.11344986 38.73967484 -0.11337433 37.85898834 -0.11329651 36.95161438 C-0.10813522 36.00465195 -0.10297394 35.05768951 -0.09765625 34.08203125 C-0.0962413 33.10965012 -0.09482635 32.13726898 -0.09336853 31.13542175 C-0.08776817 28.02774996 -0.07521562 24.92015004 -0.0625 21.8125 C-0.05748505 19.70638125 -0.05292213 17.60026137 -0.04882812 15.49414062 C-0.03779862 10.32939936 -0.02053375 5.16471187 0 0 Z " fill="#D70040" transform="translate(540,402)"/>
<path d="M0 0 C2.34162527 1.72540809 3.84560522 3.28597507 5.375 5.75 C4.385 7.07 3.395 8.39 2.375 9.75 C1.715 9.46125 1.055 9.1725 0.375 8.875 C-6.35803339 6.35011248 -10.78887246 4.87364299 -17.63671875 7.58203125 C-21.05786684 9.5917037 -22.52872522 11.98200922 -23.625 15.75 C-24.40871645 20.49354692 -24.0963335 23.77107657 -22 28.125 C-18.45085858 32.04773526 -15.48441485 33.50896474 -10.25 34.1875 C-6.28038632 33.70840869 -3.81524089 32.54300309 -0.421875 30.52734375 C1.375 29.75 1.375 29.75 4.375 30.75 C4.87 33.225 4.87 33.225 5.375 35.75 C-1.50904016 40.91303012 -7.81360786 42.36128059 -16.3046875 41.21875 C-22.46745948 39.97374556 -26.78841662 36.57551637 -30.625 31.75 C-33.72039413 25.84061122 -33.8013582 17.67967227 -31.90234375 11.3359375 C-29.16361914 5.41497013 -24.94996203 1.72998481 -18.84765625 -0.7109375 C-12.64181342 -2.21604525 -6.0126113 -2.07331424 0 0 Z " fill="#D70040" transform="translate(816.625,415.25)"/>
</svg>
