<?xml version="1.0" encoding="UTF-8"?>
<svg version="1.1" xmlns="http://www.w3.org/2000/svg" width="844" height="226">
<path d="M0 0 C99.80767115 0 99.80767115 0 112.3125 6.75 C112.98418213 7.10143066 113.65586426 7.45286133 114.34790039 7.81494141 C119.70054915 10.68703126 124.55048928 13.83615826 129 18 C129.74507812 18.69222656 130.49015625 19.38445313 131.2578125 20.09765625 C144.7123155 33.75739744 149.53888145 51.29280285 149.42016602 70.05151367 C148.86625181 89.75351635 141.10676052 105.40583979 127 119 C111.19388256 133.33926185 91.87923285 135.6478154 71.5625 135.25 C69.75197318 135.22987763 67.94142442 135.21163713 66.13085938 135.1953125 C61.75335108 135.15183232 57.37692738 135.08313252 53 135 C53.00222061 135.63671127 53.00444122 136.27342255 53.00672913 136.9294281 C53.0287804 143.53115276 53.04390593 150.13286704 53.05493164 156.73461914 C53.05997356 159.20142033 53.06680691 161.66821852 53.07543945 164.13500977 C53.08751125 167.67204529 53.09322956 171.20904145 53.09765625 174.74609375 C53.10281754 175.85649521 53.10797882 176.96689667 53.11329651 178.11094666 C53.11337204 179.13192947 53.11344757 180.15291229 53.11352539 181.20483398 C53.115746 182.10862289 53.11796661 183.0124118 53.12025452 183.94358826 C53 186 53 186 52 187 C34.84 187 17.68 187 0 187 C0 125.29 0 63.58 0 0 Z M47 42 C46.36191406 42.59683594 45.72382812 43.19367188 45.06640625 43.80859375 C37.59589753 51.53615223 34.33844436 61.11656911 33.8515625 71.73828125 C34.11999977 77.63683706 35.34404082 83.68808165 38 89 C39.485 88.505 39.485 88.505 41 88 C40.7834375 87.23816406 40.566875 86.47632813 40.34375 85.69140625 C37.03585967 73.42464627 36.87173164 63.07422701 43.35546875 51.6015625 C44.79376832 49.58871431 46.29943891 47.79526547 48 46 C48.50144531 45.45859375 49.00289062 44.9171875 49.51953125 44.359375 C57.11922863 37.03703884 66.68239095 34.23984255 77.05834961 34.40844727 C87.40949671 34.97337133 96.09978598 39.34338668 103 47 C109.39881456 54.69606854 112.70010155 63.80025365 112.28515625 73.8671875 C111.60962429 78.91979643 110.21255452 82.72190199 106.6875 86.4375 C103.58517563 88.24117696 101.59444562 88.92664397 98 89 C93.19212666 87.30310353 91.23954594 85.51072389 89 81 C88.41015625 77.87890625 88.41015625 77.87890625 88.0625 74.5625 C87.33492294 69.19661915 86.5388451 66.07503375 83 62 C82.5875 61.401875 82.175 60.80375 81.75 60.1875 C78.73442233 58.14121515 75.54700423 57.79787292 72 58 C67.74837347 59.29434598 65.3761671 61.54667042 62.5625 64.9375 C59.05179104 72.05010517 60.3618831 80.78476832 62.5 88.125 C65.6183607 96.46274458 70.78679038 104.98889763 79 109 C79.99 109 80.98 109 82 109 C81.24239469 105.68602567 81.24239469 105.68602567 77.8125 103.9375 C72.97307658 100.63834482 70.6164979 96.12992164 68 91 C67.65710938 90.36191406 67.31421875 89.72382812 66.9609375 89.06640625 C64.10336657 82.85719839 64.18594729 75.68002076 65 69 C66.35109097 66.28662117 67.37160991 64.49373507 69.75 62.625 C73.18207959 61.67164456 75.57822616 62.08345344 79 63 C83.51413572 67.37332782 83.97527154 72.0999288 84.68945312 78.02929688 C85.49244156 83.42517459 87.10825845 86.13704352 91 90 C94.72016407 92.49496033 98.63315581 93.39997203 103.0625 92.6875 C108.13377926 91.06709124 111.144235 87.33506709 114 83 C118.13125941 73.1209014 115.85765024 63.62621082 112 54 C105.95407691 42.46570292 97.59328769 36.47036618 85.75 31.6875 C71.00357735 28.98398918 58.01398775 31.66510206 47 42 Z M54.875 52.3125 C53.946875 53.6428125 53.946875 53.6428125 53 55 C53.33 55.66 53.66 56.32 54 57 C57.15644874 56.20290513 57.15644874 56.20290513 59.3125 53.625 C64.06862137 48.97948611 67.79966584 47.78093229 74.375 47.5 C82.31688142 47.69899931 86.21951366 50.28270653 91.75 55.6875 C97.09951293 62.74813659 98.76078967 71.42336011 100 80 C100.66 80 101.32 80 102 80 C102.70861779 69.6463067 100.573357 61.21669625 94 53 C88.07422709 47.09917771 83.40803308 43.74048302 74.8125 43.5625 C66.7389583 43.69964963 60.18649323 46.06630265 54.875 52.3125 Z M49 63 C44.88398203 73.15284432 45.09490299 84.65542376 49.109375 94.8046875 C51.23454728 99.22557058 53.50590739 103.50590739 57 107 C57.99 107 58.98 107 60 107 C58.93259164 104.79333849 57.80543787 102.66903291 56.5625 100.5546875 C49.48568817 88.41795522 49.04375012 77.6694973 52 64 C51.01 63.67 50.02 63.34 49 63 Z M74 69 C72.41526434 70.58473566 72.75337246 72.17693998 72.6875 74.375 C72.79155045 82.45625162 75.4074056 90.47916475 81.02734375 96.4296875 C86.42984967 100.73029617 92.95303411 104.53013872 100 104 C100 103.34 100 102.68 100 102 C99.20335938 101.69707031 98.40671875 101.39414063 97.5859375 101.08203125 C88.67554365 97.55906531 82.88988605 94.8202592 78.76171875 85.8671875 C76.91617473 81.34323857 76.67695838 77.23068688 76.37890625 72.3984375 C76.25386719 71.60695313 76.12882812 70.81546875 76 70 C75.34 69.67 74.68 69.34 74 69 Z " fill="#FFFFFF" transform="translate(15,21)"/>
<path d="M0 0 C15.95675962 13.15482861 25.55697486 30.35319459 28 51 C28.13120965 53.87678014 28.14026151 56.74566167 28.125 59.625 C28.12886719 60.36234375 28.13273438 61.0996875 28.13671875 61.859375 C28.12968043 65.78675914 27.77735999 69.11320003 27 73 C-7.98 73 -42.96 73 -79 73 C-75.12161331 83.6655634 -72.96169696 89.60083783 -63.02734375 94.2734375 C-54.80367408 97.22064859 -45.58694332 96.85616487 -37.3671875 94.125 C-32.85164494 91.97899958 -28.27056456 88.54112912 -26 84 C-9.17 84 7.66 84 25 84 C16.93008401 106.19226898 4.66821319 121.08854002 -16.72265625 131.16796875 C-37.18662677 140.27905383 -60.67920839 139.91149919 -81.52734375 132.4140625 C-90.28045187 128.84980475 -97.85297355 124.17123317 -105 118 C-105.67804687 117.41734375 -106.35609375 116.8346875 -107.0546875 116.234375 C-120.82470664 103.48237283 -128.39199662 84.29413927 -129.3203125 65.78125 C-129.96183741 44.40765394 -124.70097323 24.70739011 -110.5625 8.14453125 C-82.64285058 -21.27661095 -31.91530881 -25.72121927 0 0 Z M-72 31 C-75.08870713 35.53819868 -77.66175256 39.64701025 -79 45 C-60.19 45 -41.38 45 -22 45 C-25.41373254 34.75880238 -28.63460539 29.78194523 -38 25 C-48.86125726 20.69648297 -63.75030452 22.04318776 -72 31 Z " fill="#FFFFFF" transform="translate(679,71)"/>
<path d="M0 0 C13.60235606 10.82250949 19.96893297 24.03601227 22.47796631 41.16220093 C23.45152906 49.72371281 23.11586362 58.41819906 23.0703125 67.01953125 C23.06657507 69.108453 23.06373155 71.19737652 23.06173706 73.28630066 C23.05415805 78.74257379 23.03455978 84.19873778 23.0123291 89.65496826 C22.99174616 95.23936487 22.98270891 100.82377939 22.97265625 106.40820312 C22.95130767 117.33468295 22.91724223 128.26108235 22.875 139.1875 C15.77255001 139.21276787 8.67011152 139.23033201 1.56762695 139.24243164 C-0.85067172 139.24747349 -3.26896733 139.25430678 -5.68725586 139.26293945 C-9.15479283 139.27501157 -12.62228966 139.28072963 -16.08984375 139.28515625 C-17.17837143 139.29031754 -18.26689911 139.29547882 -19.38841248 139.30079651 C-20.88985558 139.30090981 -20.88985558 139.30090981 -22.42163086 139.30102539 C-23.75066689 139.30435631 -23.75066689 139.30435631 -25.10655212 139.30775452 C-27.125 139.1875 -27.125 139.1875 -28.125 138.1875 C-28.22894089 135.43548841 -28.26861231 132.70775447 -28.2668457 129.95507812 C-28.27032013 129.09156738 -28.27379456 128.22805664 -28.27737427 127.33837891 C-28.28474718 125.45533396 -28.29008434 123.57228022 -28.29366493 121.68922424 C-28.3008162 118.70416183 -28.31647541 115.71926517 -28.33500671 112.73425293 C-28.38751965 104.24408327 -28.43540138 95.7540002 -28.45092773 87.26367188 C-28.46103935 82.07520263 -28.49045244 76.88714396 -28.53224754 71.69883728 C-28.54452546 69.72463596 -28.54968469 67.75037653 -28.54744911 65.77613831 C-28.54508227 63.00201072 -28.56736981 60.22904771 -28.5949707 57.45507812 C-28.58836929 56.64744019 -28.58176788 55.83980225 -28.57496643 55.00769043 C-28.68808169 48.03803632 -30.72483301 42.09679332 -35.1875 36.6875 C-41.23536768 33.59922714 -47.83702243 33.58782665 -54.375 35.125 C-59.93482946 37.10497106 -63.07772684 40.20625852 -66.125 45.1875 C-70.02020679 55.15579003 -69.59975423 65.78281439 -69.63671875 76.296875 C-69.65359643 78.11819647 -69.67175073 79.93950651 -69.69111633 81.76080322 C-69.73828746 86.51501899 -69.76830835 91.2691884 -69.79455566 96.02355957 C-69.82981418 101.74911045 -69.88673181 107.47448343 -69.93994904 113.19989014 C-70.01807655 121.86240299 -70.06897379 130.5246892 -70.125 139.1875 C-86.625 139.1875 -103.125 139.1875 -120.125 139.1875 C-120.125 91.3375 -120.125 43.4875 -120.125 -5.8125 C-108.575 -5.8125 -97.025 -5.8125 -85.125 -5.8125 C-79.125 6.1875 -79.125 6.1875 -79.125 8.1875 C-78.24199219 7.52363281 -77.35898437 6.85976562 -76.44921875 6.17578125 C-54.0894637 -10.38804458 -24.35228991 -17.54111304 0 0 Z " fill="#FFFFFF" transform="translate(385.125,68.8125)"/>
<path d="M0 0 C0 14.19 0 28.38 0 43 C11.88 43 23.76 43 36 43 C36 55.87 36 68.74 36 82 C24.78 82 13.56 82 2 82 C2.05106144 89.29668013 2.11401846 96.59123177 2.20751953 103.88720703 C2.23571696 106.36825681 2.25693755 108.84939622 2.27099609 111.33056641 C2.29244162 114.90053147 2.33910342 118.46942028 2.390625 122.0390625 C2.39185364 123.14553131 2.39308228 124.25200012 2.39434814 125.39199829 C2.5107017 131.53241137 2.80046288 135.37597815 7 140 C12.98066495 143.64750567 19.07204336 143.53718284 25.9375 143.6875 C31.4134375 143.8421875 31.4134375 143.8421875 37 144 C37 158.52 37 173.04 37 188 C30.35875 188.061875 23.7175 188.12375 16.875 188.1875 C14.80976074 188.21481201 12.74452148 188.24212402 10.61669922 188.27026367 C-6.86229845 188.4060299 -22.76157704 186.58494666 -36.15234375 174.1015625 C-47.82225424 160.82796452 -49.16575277 145.03051233 -49.09765625 128.19140625 C-49.09578833 126.85619663 -49.0943662 125.52098631 -49.09336853 124.18577576 C-49.08957277 120.69237332 -49.079768 117.19901327 -49.06866455 113.70562744 C-49.05838681 110.1325336 -49.05380233 106.55943263 -49.04882812 102.98632812 C-49.03867503 95.99084813 -49.01909595 88.99548413 -49 82 C-57.58 82 -66.16 82 -75 82 C-75 69 -75 69 -73.05859375 65.82421875 C-72.19363281 65.11910156 -71.32867187 64.41398437 -70.4375 63.6875 C-69.51324219 62.88054687 -68.58898437 62.07359375 -67.63671875 61.2421875 C-66.76660156 60.50226563 -65.89648438 59.76234375 -65 59 C-63.88628431 57.79829323 -62.79996065 56.57029348 -61.75 55.3125 C-58.35908332 51.35376472 -54.81354413 47.5526029 -51.25 43.75 C-46.0370612 38.1855421 -40.85929887 32.59277189 -35.71484375 26.96484375 C-33.81682102 24.88929313 -31.91264255 22.81960898 -30.00390625 20.75390625 C-29.49867432 20.20645752 -28.99344238 19.65900879 -28.47290039 19.0949707 C-27.45631518 17.997563 -26.43601006 16.90358857 -25.41186523 15.81323242 C-22.96363584 13.19509186 -20.61529199 10.55855022 -18.40625 7.734375 C-17.5915625 6.72890625 -16.776875 5.7234375 -15.9375 4.6875 C-15.24527344 3.78386719 -14.55304688 2.88023438 -13.83984375 1.94921875 C-11 0 -11 0 0 0 Z " fill="#FFFFFF" transform="translate(496,20)"/>
<path d="M0 0 C16.5 0 33 0 50 0 C50.01458252 3.96201416 50.02916504 7.92402832 50.04418945 12.00610352 C50.09451749 25.09391745 50.16095948 38.1816079 50.23571491 51.26930332 C50.28064715 59.20466851 50.32006771 67.13998907 50.34643555 75.07543945 C50.36943651 81.99338772 50.40285788 88.91119447 50.44870156 95.82903045 C50.47260563 99.49071747 50.49135279 103.15226457 50.49761391 106.81402779 C50.50480544 110.90559927 50.53526464 114.99668491 50.56762695 119.08813477 C50.56619186 120.29726532 50.56475677 121.50639587 50.5632782 122.75216675 C50.63236489 128.92510438 50.94166153 133.57854696 54 139 C59.3869711 144.14747726 67.54174913 143.65689397 74.5 143.75 C80.1925 143.87375 80.1925 143.87375 86 144 C86 158.52 86 173.04 86 188 C79.235 188.0825 72.47 188.165 65.5 188.25 C62.35114258 188.30462402 62.35114258 188.30462402 59.13867188 188.36035156 C41.7481154 188.53550012 26.28004536 186.50535472 12.8125 174.5 C1.64314868 162.6962839 -0.31231359 148.01159643 -0.22705078 132.48413086 C-0.22648571 131.03454598 -0.2268051 129.58496053 -0.22793579 128.13537598 C-0.22850656 124.22482567 -0.21679715 120.31439957 -0.20278788 116.40387797 C-0.19023433 112.30795987 -0.18910639 108.2120385 -0.18673706 104.11610413 C-0.18053583 96.37090453 -0.16414348 88.62576179 -0.14403808 80.88058716 C-0.12163672 72.05830522 -0.11067502 63.23602048 -0.10064721 54.41371715 C-0.07977596 36.2757727 -0.04311679 18.13790615 0 0 Z " fill="#FFFFFF" transform="translate(725,20)"/>
<path d="M0 0 C16.83 0 33.66 0 51 0 C51 42.24 51 84.48 51 128 C34.17 128 17.34 128 0 128 C0 85.76 0 43.52 0 0 Z " fill="#FFFFFF" transform="translate(184,80)"/>
<path d="M0 0 C16.17 0 32.34 0 49 0 C49 14.19 49 28.38 49 43 C32.83 43 16.66 43 0 43 C0 28.81 0 14.62 0 0 Z " fill="#FFFFFF" transform="translate(185,20)"/>
<path d="M0 0 C8 0 8 0 10.5625 1.5 C12.3699573 4.643404 11.82319266 6.56502984 11.1640625 10.03515625 C10.91587992 13.00743808 12.28687088 14.6701444 14 17 C14 17.66 14 18.32 14 19 C11.6875 19.3125 11.6875 19.3125 9 19 C7.18116991 16.6167054 6 15.04181663 6 12 C5.34 12 4.68 12 4 12 C4 14.31 4 16.62 4 19 C2.68 19 1.36 19 0 19 C0 12.73 0 6.46 0 0 Z M4 4 C4 5.32 4 6.64 4 8 C4.99 7.67 5.98 7.34 7 7 C7 6.01 7 5.02 7 4 C6.01 4 5.02 4 4 4 Z " fill="#FFFFFF" transform="translate(824,26)"/>
</svg>
