<?xml version="1.0" encoding="UTF-8"?>
<svg id="Layer_2" data-name="Layer 2" xmlns="http://www.w3.org/2000/svg" viewBox="0 0 607 119">
  <defs>
    <style>
      .cls-1 {
        fill: #fff;
      }
    </style>
  </defs>
  <g id="Layer_1-2" data-name="Layer 1">
    <g>
      <g>
        <rect width="119" height="119" rx="37.72" ry="37.72"/>
        <g>
          <g>
            <path class="cls-1" d="M46.13,49.39h-13.73v-6.92h11.92c.22,0,.42-.09.58-.24l8.18-8.18c.15-.15.24-.36.24-.58v-11.84h6.92v13.65c0,.89-.35,1.74-.98,2.37l-10.75,10.75c-.63.63-1.48.98-2.37.98Z"/>
            <path class="cls-1" d="M57.09,67.93h-6.92v-13.65c0-.89.35-1.74.98-2.37l10.75-10.75c.63-.63,1.48-.98,2.37-.98h13.73v6.92h-11.92c-.22,0-.42.09-.58.24l-8.18,8.18c-.15.15-.24.36-.24.58v11.84Z"/>
          </g>
          <g>
            <path class="cls-1" d="M59.22,81.81h-13.73v-6.92h11.92c.22,0,.42-.09.58-.24l8.18-8.18c.15-.15.24-.36.24-.58v-11.84h6.92v13.65c0,.89-.35,1.74-.98,2.37l-10.75,10.75c-.63.63-1.48.98-2.37.98Z"/>
            <path class="cls-1" d="M70.18,100.35h-6.92v-13.65c0-.89.35-1.74.98-2.37l10.75-10.75c.63-.63,1.48-.98,2.37-.98h13.73v6.92h-11.92c-.22,0-.42.09-.58.24l-8.18,8.18c-.15.15-.24.36-.24.58v11.84Z"/>
          </g>
        </g>
      </g>
      <g>
        <path d="M431.26,54.8v45.87h-13.59v-42.63c0-2.77-2.25-5.02-5.02-5.02h-24.54v47.65h-13.6v-59.95h42.67c7.78,0,14.08,6.3,14.08,14.08Z"/>
        <path d="M308.86,86.59v-45.87h13.59v42.63c0,2.77,2.25,5.02,5.02,5.02h24.54v-47.65h13.6v59.95h-42.67c-7.78,0-14.08-6.3-14.08-14.08Z"/>
        <polygon points="489.63 21.3 489.63 33.45 464.85 33.45 464.85 100.54 451.25 100.54 451.25 33.45 426.71 33.45 426.71 21.3 489.63 21.3"/>
        <polygon points="566.87 21.3 566.87 100.54 553.27 100.54 553.27 33.45 547.78 33.45 547.78 21.3 566.87 21.3"/>
        <polygon points="583.85 69.74 603.97 100.54 587.16 100.54 571.68 76.83 571.68 63.94 590.19 40.72 607 40.72 583.85 69.74"/>
        <polygon points="273.19 100.54 292.99 21.3 306.59 21.3 286.79 100.54 273.19 100.54"/>
        <path d="M253.19,40.72h-29.57c-8.39,0-15.19,6.8-15.19,15.19v29.58c0,8.39,6.8,15.18,15.18,15.18h29.59c8.39,0,15.18-6.8,15.18-15.18v-29.58c0-8.39-6.8-15.19-15.19-15.19ZM253.03,88.3h-29.24c-1.65,0-2.98-1.33-2.98-2.98v-29.24c0-1.65,1.33-2.98,2.98-2.98h29.25c1.65,0,2.98,1.33,2.98,2.98v29.24c0,1.65-1.33,2.98-2.98,2.98Z"/>
        <path d="M160.14,36.66l.03,14.52c0,1.64,1.34,2.97,2.98,2.97h22.44c8.39,0,15.19,6.8,15.19,15.19v16.14c0,8.39-6.8,15.19-15.19,15.19h-39.02v-12.38h37.63c1.65,0,2.98-1.33,2.98-2.98v-15.54c0-1.65-1.33-2.98-2.98-2.98h-22.44c-8.39,0-15.19-6.8-15.19-15.19v-15.12c0-8.39,6.8-15.19,15.19-15.19h39.02s-.04,12.38-.04,12.38h-37.62c-1.65,0-2.98,1.34-2.98,2.99Z"/>
        <path d="M493.45,76.88h47.5v-21.02c0-8.39-6.8-15.18-15.18-15.18h-29.5c-8.39,0-15.18,6.8-15.18,15.18v29.5c0,8.39,6.8,15.18,15.18,15.18h36.06l8.3-12.38-47.18.03v-11.31ZM496.43,53.03h29.19c1.65,0,2.98,1.33,2.98,2.98v8.51h-35.15v-8.51c0-1.65,1.33-2.98,2.98-2.98Z"/>
        <rect x="493.45" y="88.16" width="35.15" height=".03"/>
      </g>
    </g>
  </g>
</svg>