<?xml version="1.0" encoding="UTF-8"?>
<svg id="Layer_2" data-name="Layer 2" xmlns="http://www.w3.org/2000/svg" viewBox="0 0 604.75 119">
  <defs>
    <style>
      .cls-1 {
        fill: #0600af;
      }

      .cls-2 {
        fill: #fff;
      }
    </style>
  </defs>
  <g id="Layer_1-2" data-name="Layer 1">
    <g>
      <g>
        <rect class="cls-1" y="0" width="119" height="119" rx="37.72" ry="37.72"/>
        <g>
          <g>
            <path class="cls-2" d="M43.88,47.9h-13.73v-6.92h11.92c.22,0,.42-.09.58-.24l8.18-8.18c.15-.15.24-.36.24-.58v-11.84h6.92v13.65c0,.89-.35,1.74-.98,2.37l-10.75,10.75c-.63.63-1.48.98-2.37.98Z"/>
            <path class="cls-2" d="M54.84,66.44h-6.92v-13.65c0-.89.35-1.74.98-2.37l10.75-10.75c.63-.63,1.48-.98,2.37-.98h13.73v6.92h-11.92c-.22,0-.42.09-.58.24l-8.18,8.18c-.15.15-.24.36-.24.58v11.84Z"/>
          </g>
          <g>
            <path class="cls-2" d="M56.97,80.32h-13.73v-6.92h11.92c.22,0,.42-.09.58-.24l8.18-8.18c.15-.15.24-.36.24-.58v-11.84h6.92v13.65c0,.89-.35,1.74-.98,2.37l-10.75,10.75c-.63.63-1.48.98-2.37.98Z"/>
            <path class="cls-2" d="M67.93,98.85h-6.92v-13.65c0-.89.35-1.74.98-2.37l10.75-10.75c.63-.63,1.48-.98,2.37-.98h13.73v6.92h-11.92c-.22,0-.42.09-.58.24l-8.18,8.18c-.15.15-.24.36-.24.58v11.84Z"/>
          </g>
        </g>
      </g>
      <g>
        <path class="cls-2" d="M429.01,53.31v45.87h-13.59v-42.63c0-2.77-2.25-5.02-5.02-5.02h-24.54v47.65h-13.6v-59.95h42.67c7.78,0,14.08,6.3,14.08,14.08Z"/>
        <path class="cls-2" d="M306.61,85.1v-45.87h13.59v42.63c0,2.77,2.25,5.02,5.02,5.02h24.54v-47.65h13.6v59.95h-42.67c-7.78,0-14.08-6.3-14.08-14.08Z"/>
        <polygon class="cls-2" points="487.38 19.81 487.38 31.96 462.6 31.96 462.6 99.05 449 99.05 449 31.96 424.46 31.96 424.46 19.81 487.38 19.81"/>
        <polygon class="cls-2" points="564.62 19.81 564.62 99.05 551.02 99.05 551.02 31.96 545.53 31.96 545.53 19.81 564.62 19.81"/>
        <polygon class="cls-2" points="581.6 68.24 601.72 99.05 584.91 99.05 569.43 75.34 569.43 62.45 587.94 39.23 604.75 39.23 581.6 68.24"/>
        <polygon class="cls-2" points="270.94 99.05 290.74 19.81 304.34 19.81 284.54 99.05 270.94 99.05"/>
        <path class="cls-2" d="M250.94,39.23h-29.57c-8.39,0-15.19,6.8-15.19,15.19v29.58c0,8.39,6.8,15.18,15.18,15.18h29.59c8.39,0,15.18-6.8,15.18-15.18v-29.58c0-8.39-6.8-15.19-15.19-15.19ZM250.78,86.81h-29.24c-1.65,0-2.98-1.33-2.98-2.98v-29.24c0-1.65,1.33-2.98,2.98-2.98h29.25c1.65,0,2.98,1.33,2.98,2.98v29.24c0,1.65-1.33,2.98-2.98,2.98Z"/>
        <path class="cls-2" d="M157.89,35.17l.03,14.52c0,1.64,1.34,2.97,2.98,2.97h22.44c8.39,0,15.19,6.8,15.19,15.19v16.14c0,8.39-6.8,15.19-15.19,15.19h-39.02v-12.38h37.63c1.65,0,2.98-1.33,2.98-2.98v-15.54c0-1.65-1.33-2.98-2.98-2.98h-22.44c-8.39,0-15.19-6.8-15.19-15.19v-15.12c0-8.39,6.8-15.19,15.19-15.19h39.02s-.04,12.38-.04,12.38h-37.62c-1.65,0-2.98,1.34-2.98,2.99Z"/>
        <path class="cls-2" d="M491.2,75.39h47.5v-21.02c0-8.39-6.8-15.18-15.18-15.18h-29.5c-8.39,0-15.18,6.8-15.18,15.18v29.5c0,8.39,6.8,15.18,15.18,15.18h36.06l8.3-12.38-47.18.03v-11.31ZM494.18,51.53h29.19c1.65,0,2.98,1.33,2.98,2.98v8.51h-35.15v-8.51c0-1.65,1.33-2.98,2.98-2.98Z"/>
        <rect class="cls-2" x="491.2" y="86.67" width="35.15" height=".03"/>
      </g>
    </g>
  </g>
</svg>