<?xml version="1.0" encoding="UTF-8"?>
<svg id="Layer_2" data-name="Layer 2" xmlns="http://www.w3.org/2000/svg" viewBox="0 0 569.84 119">
  <g id="Layer_1-2" data-name="Layer 1">
    <g>
      <g>
        <path d="M394.09,53.31v45.87h-13.59v-42.63c0-2.77-2.25-5.02-5.02-5.02h-24.54v47.65h-13.6v-59.95h42.67c7.78,0,14.08,6.3,14.08,14.08Z"/>
        <path d="M271.7,85.1v-45.87h13.59v42.63c0,2.77,2.25,5.02,5.02,5.02h24.54v-47.65h13.6v59.95h-42.67c-7.78,0-14.08-6.3-14.08-14.08Z"/>
        <polygon points="452.47 19.81 452.47 31.96 427.69 31.96 427.69 99.05 414.09 99.05 414.09 31.96 389.54 31.96 389.54 19.81 452.47 19.81"/>
        <polygon points="529.71 19.81 529.71 99.05 516.11 99.05 516.11 31.96 510.61 31.96 510.61 19.81 529.71 19.81"/>
        <polygon points="546.69 68.25 566.8 99.05 549.99 99.05 534.51 75.34 534.51 62.45 553.03 39.23 569.84 39.23 546.69 68.25"/>
        <polygon points="236.03 99.05 255.82 19.81 269.43 19.81 249.63 99.05 236.03 99.05"/>
        <path d="M216.02,39.23h-29.57c-8.39,0-15.19,6.8-15.19,15.19v29.58c0,8.39,6.8,15.18,15.18,15.18h29.59c8.39,0,15.18-6.8,15.18-15.18v-29.58c0-8.39-6.8-15.19-15.19-15.19ZM215.86,86.81h-29.24c-1.65,0-2.98-1.33-2.98-2.98v-29.24c0-1.65,1.33-2.98,2.98-2.98h29.25c1.65,0,2.98,1.33,2.98,2.98v29.24c0,1.65-1.33,2.98-2.98,2.98Z"/>
        <path d="M122.97,35.17l.03,14.52c0,1.64,1.34,2.97,2.98,2.97h22.44c8.39,0,15.19,6.8,15.19,15.19v16.14c0,8.39-6.8,15.19-15.19,15.19h-39.02v-12.38h37.63c1.65,0,2.98-1.33,2.98-2.98v-15.54c0-1.65-1.33-2.98-2.98-2.98h-22.44c-8.39,0-15.19-6.8-15.19-15.19v-15.12c0-8.39,6.8-15.19,15.19-15.19h39.02s-.04,12.38-.04,12.38h-37.62c-1.65,0-2.98,1.34-2.98,2.99Z"/>
        <path d="M456.28,75.39h47.5v-21.02c0-8.39-6.8-15.18-15.18-15.18h-29.5c-8.39,0-15.18,6.8-15.18,15.18v29.5c0,8.39,6.8,15.18,15.18,15.18h36.06l8.3-12.38-47.18.03v-11.31ZM459.26,51.54h29.19c1.65,0,2.98,1.33,2.98,2.98v8.51h-35.15v-8.51c0-1.65,1.33-2.98,2.98-2.98Z"/>
        <rect x="456.28" y="86.67" width="35.15" height=".03"/>
      </g>
      <g>
        <g>
          <path d="M20.76,41.96H0v-10.46h18.01c.33,0,.64-.13.87-.36l12.37-12.37c.23-.23.36-.55.36-.87V0h10.46v20.64c0,1.35-.53,2.64-1.49,3.59l-16.24,16.24c-.95.95-2.24,1.49-3.59,1.49Z"/>
          <path d="M37.33,69.99h-10.46v-20.64c0-1.35.53-2.64,1.49-3.59l16.24-16.25c.95-.95,2.24-1.49,3.59-1.49h20.76v10.46h-18.01c-.33,0-.64.13-.87.36l-12.37,12.37c-.23.23-.36.55-.36.87v17.9Z"/>
        </g>
        <g>
          <path d="M40.55,90.97h-20.76v-10.46h18.01c.33,0,.64-.13.87-.36l12.37-12.37c.23-.23.36-.55.36-.87v-17.9h10.46v20.64c0,1.35-.53,2.64-1.49,3.59l-16.24,16.24c-.95.95-2.24,1.49-3.59,1.49Z"/>
          <path d="M57.12,119h-10.46v-20.64c0-1.35.53-2.64,1.49-3.59l16.24-16.25c.95-.95,2.24-1.49,3.59-1.49h20.76v10.46h-18.01c-.33,0-.64.13-.87.36l-12.37,12.37c-.23.23-.36.55-.36.87v17.9Z"/>
        </g>
      </g>
    </g>
  </g>
</svg>